<svg id="diagram" xmlns="http://www.w3.org/2000/svg" viewBox="0 0 1200 300"><title>product</title><g id="brand"><g id="brand-logo"><path d="M297.886,209.373a8.15,8.15,0,0,0-3.043-3.121l1.771.839a10.289,10.289,0,0,1,3.741,3l3.235-5.931a2.855,2.855,0,0,0-.061-2.961,2.727,2.727,0,0,0-3.567-.872l-5.876,3.211a4.362,4.362,0,0,1-4.177,0L284.16,200.4a2.855,2.855,0,0,0-2.96.063,2.727,2.727,0,0,0-.872,3.566l3.205,5.875a4.362,4.362,0,0,1,0,4.178l-3.128,5.744a2.861,2.861,0,0,0,.085,3,2.727,2.727,0,0,0,3.546.839l6.059-3.306a10.289,10.289,0,0,1-3.006-3.746l-.838-1.771a8.15,8.15,0,0,0,3.121,3.043l10.585,5.78a2.727,2.727,0,0,0,3.543-.836,2.87,2.87,0,0,0,.08-3Zm3.381-7.737a1.091,1.091,0,1,1-1.091,1.091A1.091,1.091,0,0,1,301.267,201.636Zm-18.54,2.181a1.091,1.091,0,1,1,1.091-1.091A1.091,1.091,0,0,1,282.727,203.818Zm0,18.54a1.091,1.091,0,1,1,1.091-1.091A1.091,1.091,0,0,1,282.727,222.358Zm10.361-11.451a2.175,2.175,0,0,0-1.476,3.778,2.72,2.72,0,1,1,3.072-3.072A2.163,2.163,0,0,0,293.088,210.907Zm8.18,11.451a1.091,1.091,0,1,1,1.091-1.091A1.091,1.091,0,0,1,301.267,222.358Z" transform="translate(0 0)" fill="#ff694b"/></g></g><rect width="1200" height="300" fill="none"/><rect x="264" y="256" width="672" height="40" rx="4" ry="4" fill="#f9fafb" stroke="#cfd4d7" stroke-miterlimit="10"/><path d="M364,97H836a4,4,0,0,1,4,4v36a0,0,0,0,1,0,0H360a0,0,0,0,1,0,0V101A4,4,0,0,1,364,97Z" fill="#edfafa" stroke="#01bbbb" stroke-linecap="round" stroke-linejoin="round"/><rect x="360" y="137" width="480" height="40" fill="#edfafa" stroke="#01bbbb" stroke-linecap="round" stroke-linejoin="round"/><path d="M360,177H840a0,0,0,0,1,0,0v36a4,4,0,0,1-4,4H364a4,4,0,0,1-4-4V177A0,0,0,0,1,360,177Z" fill="#edfafa" stroke="#01bbbb" stroke-linecap="round" stroke-linejoin="round"/><rect x="572" y="40" width="72" height="40" fill="#fff5f4" stroke="#ff694b" stroke-linecap="round" stroke-linejoin="round"/><rect x="464" y="40" width="108" height="40" fill="#fff5f4" stroke="#ff694b" stroke-linecap="round" stroke-linejoin="round"/><path d="M360,47V44a4,4,0,0,1,4-4H464V80H364a4,4,0,0,1-4-4V71" transform="translate(0 0)" fill="#fff5f4" stroke="#ff694b" stroke-linecap="round" stroke-linejoin="round"/><path d="M724,40H836a4,4,0,0,1,4,4V76a4,4,0,0,1-4,4H724a0,0,0,0,1,0,0V40A0,0,0,0,1,724,40Z" fill="#fff5f4" stroke="#ff694b" stroke-linecap="round" stroke-linejoin="round"/><rect x="644" y="40" width="80" height="40" fill="#fff5f4" stroke="#ff694b" stroke-linecap="round" stroke-linejoin="round"/><path d="M888,48V43a3,3,0,0,1,3-3h122a3,3,0,0,1,3,3v90a3,3,0,0,1-3,3H891a3,3,0,0,1-3-3V72" transform="translate(0 0)" fill="#f3faed" stroke="#7ec632" stroke-linecap="round" stroke-linejoin="round"/><path d="M184,100v33a3,3,0,0,0,3,3H309a3,3,0,0,0,3-3V43a3,3,0,0,0-3-3H187a3,3,0,0,0-3,3V76" transform="translate(0 0)" fill="#fff8db"/><line x1="184" y1="100" x2="184" y2="102" fill="none" stroke="#ffb100" stroke-linecap="round" stroke-linejoin="round"/><path d="M184,107.983V133a3,3,0,0,0,3,3H309a3,3,0,0,0,3-3V43a3,3,0,0,0-3-3H187a3,3,0,0,0-3,3V71.008" transform="translate(0 0)" fill="none" stroke="#ffb100" stroke-linecap="round" stroke-linejoin="round" stroke-dasharray="3.989 5.983"/><line x1="184" y1="74" x2="184" y2="76" fill="none" stroke="#ffb100" stroke-linecap="round" stroke-linejoin="round"/><path d="M136,91v42a3,3,0,0,1-3,3H11a3,3,0,0,1-3-3V43a3,3,0,0,1,3-3H133a3,3,0,0,1,3,3V85" transform="translate(0 0)" fill="#f9fafb" stroke="#cfd4d7" stroke-miterlimit="10"/><path d="M1064,100v33a3,3,0,0,0,3,3h122a3,3,0,0,0,3-3V43a3,3,0,0,0-3-3H1067a3,3,0,0,0-3,3V76" transform="translate(0 0)" fill="#f9fafb" stroke="#cfd4d7" stroke-miterlimit="10"/><path d="M264,32V24h0a8,8,0,0,1,8-8H928a8,8,0,0,1,8,8h0v8" transform="translate(0 0)" fill="none" stroke="#cfd4d7" stroke-miterlimit="10"/><path d="M264,144v88a8,8,0,0,0,8,8H928a8,8,0,0,0,8-8V144" transform="translate(0 0)" fill="none" stroke="#cfd4d7" stroke-miterlimit="10"/><path d="M137,88a1,1,0,1,0-1,1,1,1,0,0,0,1-1h2a3,3,0,1,1-3-3,3,3,0,0,1,3,3h45V84l7,4-7,4V88h2l-1,2,3-2-3-2,1,2" transform="translate(0 0)" fill="none" stroke="#bec5c9" stroke-linecap="round" stroke-linejoin="round" stroke-width="2"/><path d="M1017,88a1,1,0,1,0-1,1,1,1,0,0,0,1-1h2a3,3,0,1,1-3-3,3,3,0,0,1,3,3h45V84l7,4-7,4V88h2l-1,2,3-2-3-2,1,2" transform="translate(0 0)" fill="none" stroke="#7ec632" stroke-linecap="round" stroke-linejoin="round" stroke-width="2"/><path d="M547.434,269.5q.84,0,1.477.063a7.139,7.139,0,0,1,1.113.189,3.36,3.36,0,0,1,.826.329,2.993,2.993,0,0,1,.616.469,3.487,3.487,0,0,1,.812,1.505,8.78,8.78,0,0,1,.308,2.513,8.037,8.037,0,0,1-.119,1.4,7.567,7.567,0,0,1-.329,1.253,5.1,5.1,0,0,1-.5,1.036,3.612,3.612,0,0,1-.644.763,3.43,3.43,0,0,1-1.463.749,9.143,9.143,0,0,1-2.247.231h-3.92V269.5Zm-1.792,1.9v6.678h1.33q.532,0,.931-.028a6.014,6.014,0,0,0,.693-.084,2.42,2.42,0,0,0,.5-.147,1.315,1.315,0,0,0,.364-.231,2.478,2.478,0,0,0,.56-1.029,6.094,6.094,0,0,0,.252-1.911,6.532,6.532,0,0,0-.175-1.659,2.477,2.477,0,0,0-.483-1,1.5,1.5,0,0,0-.91-.483,8.388,8.388,0,0,0-1.442-.1Z" transform="translate(0 0)" fill="#8b969e"/><path d="M559.362,280,559,278.866h-.1q-.112.14-.252.308c-.094.112-.182.217-.266.315s-.159.182-.224.252a.749.749,0,0,1-.126.119,2.364,2.364,0,0,1-.693.189,6.27,6.27,0,0,1-.987.077,3.567,3.567,0,0,1-1.078-.133,1.447,1.447,0,0,1-.644-.4,1.872,1.872,0,0,1-.385-.721,3.2,3.2,0,0,1-.133-.931,2.531,2.531,0,0,1,.259-1.267,2.066,2.066,0,0,1,.581-.665,3.188,3.188,0,0,1,.686-.308,7.786,7.786,0,0,1,.952-.245q.532-.1,1.141-.189t1.253-.14a4.094,4.094,0,0,0-.049-.616.988.988,0,0,0-.175-.476.855.855,0,0,0-.539-.266,4.688,4.688,0,0,0-.833-.07q-.364,0-.742.028c-.252.019-.5.042-.735.07s-.464.056-.679.084-.406.056-.574.084v-1.5q.266-.07.644-.161t.826-.168q.448-.077.952-.126c.336-.033.681-.049,1.036-.049a6.423,6.423,0,0,1,1.512.147,2.314,2.314,0,0,1,.938.441,1.9,1.9,0,0,1,.5.833,4.92,4.92,0,0,1,.175,1.463V280Zm-.378-3.528q-.378.014-.784.035t-.77.063q-.364.042-.623.091a.828.828,0,0,0-.343.119,1.112,1.112,0,0,0-.21.784,1.1,1.1,0,0,0,.224.784.821.821,0,0,0,.357.168,2.766,2.766,0,0,0,.623.056,6.6,6.6,0,0,0,.868-.056,4.54,4.54,0,0,0,.658-.126Z" transform="translate(0 0)" fill="#8b969e"/><path d="M568.084,273.8H565.9v3.486a2.279,2.279,0,0,0,.056.553.734.734,0,0,0,.182.343.642.642,0,0,0,.336.168,2.71,2.71,0,0,0,.518.042q.35,0,.735-.028t.6-.056l-.168,1.54q-.364.1-.917.189a7.588,7.588,0,0,1-1.225.091,3.755,3.755,0,0,1-1.106-.14,1.7,1.7,0,0,1-.728-.427,1.682,1.682,0,0,1-.406-.735,4.024,4.024,0,0,1-.126-1.078V273.8H562.54l.112-1.652h.994v-1.288l2.254-.42v1.708h2.506Z" transform="translate(0 0)" fill="#8b969e"/><path d="M574.58,280l-.364-1.134h-.1q-.112.14-.252.308c-.094.112-.182.217-.266.315s-.159.182-.224.252a.749.749,0,0,1-.126.119,2.364,2.364,0,0,1-.693.189,6.27,6.27,0,0,1-.987.077,3.567,3.567,0,0,1-1.078-.133,1.447,1.447,0,0,1-.644-.4,1.872,1.872,0,0,1-.385-.721,3.2,3.2,0,0,1-.133-.931,2.531,2.531,0,0,1,.259-1.267,2.066,2.066,0,0,1,.581-.665,3.188,3.188,0,0,1,.686-.308,7.786,7.786,0,0,1,.952-.245q.532-.1,1.141-.189t1.253-.14a4.094,4.094,0,0,0-.049-.616.988.988,0,0,0-.175-.476.855.855,0,0,0-.539-.266,4.688,4.688,0,0,0-.833-.07q-.364,0-.742.028c-.252.019-.5.042-.735.07s-.464.056-.679.084-.406.056-.574.084v-1.5q.266-.07.644-.161t.826-.168q.448-.077.952-.126c.336-.033.681-.049,1.036-.049a6.423,6.423,0,0,1,1.512.147,2.314,2.314,0,0,1,.938.441,1.9,1.9,0,0,1,.5.833,4.92,4.92,0,0,1,.175,1.463V280Zm-.378-3.528q-.378.014-.784.035t-.77.063q-.364.042-.623.091a.828.828,0,0,0-.343.119,1.112,1.112,0,0,0-.21.784,1.1,1.1,0,0,0,.224.784.821.821,0,0,0,.357.168,2.766,2.766,0,0,0,.623.056,6.6,6.6,0,0,0,.868-.056,4.54,4.54,0,0,0,.658-.126Z" transform="translate(0 0)" fill="#8b969e"/><path d="M594.375,280h-3.416l-1.694-8.33h-.182L587,280h-3.374l-2.212-10.5h2.394l1.568,8.33h.266l2.016-8.33h3.234l1.708,8.33h.28l1.736-8.33h2.352Z" transform="translate(0 0)" fill="#8b969e"/><path d="M602.691,280l-.364-1.134h-.1q-.113.14-.252.308t-.267.315c-.084.1-.158.182-.224.252a.749.749,0,0,1-.126.119,2.369,2.369,0,0,1-.693.189,6.27,6.27,0,0,1-.987.077,3.567,3.567,0,0,1-1.078-.133,1.447,1.447,0,0,1-.644-.4,1.872,1.872,0,0,1-.385-.721,3.2,3.2,0,0,1-.133-.931,2.531,2.531,0,0,1,.259-1.267,2.066,2.066,0,0,1,.581-.665,3.188,3.188,0,0,1,.686-.308,7.786,7.786,0,0,1,.952-.245q.532-.1,1.141-.189t1.253-.14a4.034,4.034,0,0,0-.05-.616.983.983,0,0,0-.174-.476.859.859,0,0,0-.539-.266,4.705,4.705,0,0,0-.833-.07q-.364,0-.742.028c-.252.019-.5.042-.735.07s-.464.056-.679.084-.406.056-.574.084v-1.5q.266-.07.644-.161t.826-.168q.448-.077.952-.126c.336-.033.681-.049,1.036-.049a6.416,6.416,0,0,1,1.512.147,2.313,2.313,0,0,1,.938.441,1.908,1.908,0,0,1,.5.833,4.92,4.92,0,0,1,.175,1.463V280Zm-.378-3.528q-.378.014-.784.035t-.77.063q-.364.042-.623.091a.828.828,0,0,0-.343.119,1.112,1.112,0,0,0-.21.784,1.1,1.1,0,0,0,.224.784.821.821,0,0,0,.357.168,2.766,2.766,0,0,0,.623.056,6.6,6.6,0,0,0,.868-.056,4.554,4.554,0,0,0,.658-.126Z" transform="translate(0 0)" fill="#8b969e"/><path d="M608.529,272.146l.42,1.26h.1l.189-.266c.079-.112.16-.224.244-.336s.162-.21.231-.294a.964.964,0,0,1,.147-.154,2.164,2.164,0,0,1,.574-.231,3.439,3.439,0,0,1,.91-.1,5.684,5.684,0,0,1,.727.042v2.058c-.158-.037-.359-.077-.6-.119a5.064,5.064,0,0,0-.854-.063,4.175,4.175,0,0,0-.924.1,2.661,2.661,0,0,0-.729.266V280h-2.24v-7.854Z" transform="translate(0 0)" fill="#8b969e"/><path d="M612.785,276.318a4.8,4.8,0,0,1,.966-3.3,3.892,3.892,0,0,1,3.024-1.064,5.154,5.154,0,0,1,1.582.21,2.312,2.312,0,0,1,1.617,1.687,5.726,5.726,0,0,1,.174,1.491v1.246h-5.054a3.562,3.562,0,0,0,.105.819,1.2,1.2,0,0,0,.321.567,1.456,1.456,0,0,0,.638.336,4.115,4.115,0,0,0,1.063.112,13.909,13.909,0,0,0,1.526-.077q.7-.076,1.147-.119l-.2,1.484q-.56.154-1.323.3a9.1,9.1,0,0,1-1.715.147,5.926,5.926,0,0,1-1.834-.245,2.828,2.828,0,0,1-1.2-.728,2.788,2.788,0,0,1-.651-1.2A6.321,6.321,0,0,1,612.785,276.318Zm3.822-2.828a1.4,1.4,0,0,0-1.113.385,2.24,2.24,0,0,0-.385,1.309h2.828v-.224a1.746,1.746,0,0,0-.295-1.092A1.238,1.238,0,0,0,616.607,273.49Z" transform="translate(0 0)" fill="#8b969e"/><path d="M627.135,280v-4.564a4.921,4.921,0,0,0-.062-.84.932.932,0,0,0-.26-.532,1.685,1.685,0,0,0-1.162-.308,3.757,3.757,0,0,0-.812.084,3.393,3.393,0,0,0-.657.21V280h-2.269V268.744h2.269v4.522h.1c.056-.075.123-.159.2-.252s.16-.185.244-.273.164-.166.238-.231a1.346,1.346,0,0,1,.182-.14,2.168,2.168,0,0,1,.722-.252,5.546,5.546,0,0,1,1.1-.1,3.813,3.813,0,0,1,1.12.14,1.74,1.74,0,0,1,.728.42,1.809,1.809,0,0,1,.463.924,6.826,6.826,0,0,1,.111,1.316V280Z" transform="translate(0 0)" fill="#8b969e"/><path d="M639.2,275.912a6.032,6.032,0,0,1-.322,2.072,3.2,3.2,0,0,1-.854,1.344,4.356,4.356,0,0,1-2.969.826,5.715,5.715,0,0,1-1.82-.245,2.793,2.793,0,0,1-1.119-.665,2.968,2.968,0,0,1-.651-1.12,5.794,5.794,0,0,1-.259-1.9,5.713,5.713,0,0,1,.336-2.079,3.189,3.189,0,0,1,.868-1.309,3.148,3.148,0,0,1,1.19-.651,5.921,5.921,0,0,1,1.777-.231,5.813,5.813,0,0,1,1.792.231,2.728,2.728,0,0,1,1.093.623,2.878,2.878,0,0,1,.686,1.141A6.16,6.16,0,0,1,639.2,275.912Zm-4.047,2.52a2.586,2.586,0,0,0,.771-.1,1.281,1.281,0,0,0,.532-.3,1.724,1.724,0,0,0,.357-.714,4.8,4.8,0,0,0,.133-1.246,5.224,5.224,0,0,0-.119-1.288,1.829,1.829,0,0,0-.314-.672,1.622,1.622,0,0,0-1.246-.392,2.57,2.57,0,0,0-.777.1,1.134,1.134,0,0,0-.5.287,1.586,1.586,0,0,0-.371.707,4.661,4.661,0,0,0-.147,1.295,5.944,5.944,0,0,0,.1,1.176,1.528,1.528,0,0,0,.294.7,1.322,1.322,0,0,0,.511.329A2.207,2.207,0,0,0,635.156,278.432Z" transform="translate(0 0)" fill="#8b969e"/><path d="M646.637,280l-.406-1.2h-.111c-.047.056-.117.143-.21.259s-.188.231-.287.343-.188.212-.272.3a1.15,1.15,0,0,1-.154.147,2.579,2.579,0,0,1-.687.189,6.432,6.432,0,0,1-1.05.077,3.5,3.5,0,0,1-1.105-.147,1.929,1.929,0,0,1-.729-.427,1.892,1.892,0,0,1-.5-.9,5.251,5.251,0,0,1-.133-1.253v-5.236h2.254v4.578a4.9,4.9,0,0,0,.056.812.991.991,0,0,0,.238.518,1.583,1.583,0,0,0,1.105.308,4.752,4.752,0,0,0,.883-.077,5.98,5.98,0,0,0,.672-.161v-5.978h2.268V280Z" transform="translate(0 0)" fill="#8b969e"/><path d="M656.395,277.578a3.424,3.424,0,0,1-.168,1.127,1.752,1.752,0,0,1-.566.8,2.683,2.683,0,0,1-1.051.483,6.884,6.884,0,0,1-1.617.161,11.074,11.074,0,0,1-1.47-.1q-.728-.1-1.218-.21V278.32c.141.028.3.056.49.084s.383.054.588.077.418.042.637.056.428.021.623.021a4.942,4.942,0,0,0,.777-.049,1.456,1.456,0,0,0,.476-.147.524.524,0,0,0,.238-.245.866.866,0,0,0,.063-.343.583.583,0,0,0-.141-.448,1.115,1.115,0,0,0-.455-.238q-.315-.1-.861-.252a7.7,7.7,0,0,1-1.295-.42,1.811,1.811,0,0,1-.734-.546,1.506,1.506,0,0,1-.287-.581,3.292,3.292,0,0,1-.092-.833,3.032,3.032,0,0,1,.168-1.036,1.823,1.823,0,0,1,.554-.784,2.682,2.682,0,0,1,1.008-.5,5.749,5.749,0,0,1,1.533-.175,13.025,13.025,0,0,1,1.5.077q.658.077,1.078.161v1.554q-.435-.07-1.015-.112c-.389-.028-.782-.042-1.184-.042a4.737,4.737,0,0,0-.756.049,1.336,1.336,0,0,0-.448.14.475.475,0,0,0-.21.231.867.867,0,0,0-.057.322,1.174,1.174,0,0,0,.021.238.36.36,0,0,0,.105.182.827.827,0,0,0,.392.252,7.793,7.793,0,0,0,.868.252,12.579,12.579,0,0,1,1.281.357,2,2,0,0,1,.763.441,1.6,1.6,0,0,1,.343.581A2.91,2.91,0,0,1,656.395,277.578Z" transform="translate(0 0)" fill="#8b969e"/><path d="M657.753,276.318a4.8,4.8,0,0,1,.966-3.3,3.894,3.894,0,0,1,3.023-1.064,5.145,5.145,0,0,1,1.582.21,2.312,2.312,0,0,1,1.617,1.687,5.638,5.638,0,0,1,.176,1.491v1.246h-5.055a3.673,3.673,0,0,0,.105.819,1.2,1.2,0,0,0,.322.567,1.441,1.441,0,0,0,.637.336,4.118,4.118,0,0,0,1.064.112,13.9,13.9,0,0,0,1.525-.077q.7-.076,1.148-.119l-.2,1.484q-.561.154-1.323.3a9.094,9.094,0,0,1-1.715.147,5.917,5.917,0,0,1-1.834-.245,2.822,2.822,0,0,1-1.2-.728,2.787,2.787,0,0,1-.65-1.2A6.318,6.318,0,0,1,657.753,276.318Zm3.821-2.828a1.4,1.4,0,0,0-1.112.385,2.24,2.24,0,0,0-.386,1.309H662.9v-.224a1.753,1.753,0,0,0-.293-1.092A1.244,1.244,0,0,0,661.574,273.49Z" transform="translate(0 0)" fill="#8b969e"/><path d="M385.344,60.976a3.729,3.729,0,0,1-.266,1.449,2.589,2.589,0,0,1-.63.959,3.01,3.01,0,0,1-1.295.581,8.9,8.9,0,0,1-2.023.2,13.817,13.817,0,0,1-1.841-.119,8.151,8.151,0,0,1-1.477-.315V62.04c.158.028.352.059.581.091s.48.061.756.084.562.044.861.063.6.028.9.028a8.594,8.594,0,0,0,1.134-.063,1.11,1.11,0,0,0,.616-.217.829.829,0,0,0,.21-.329,1.408,1.408,0,0,0,.084-.511,1,1,0,0,0-.294-.854,4.4,4.4,0,0,0-.91-.385q-.587-.189-1.232-.406t-1.232-.483a2.5,2.5,0,0,1-.9-.63,2.233,2.233,0,0,1-.42-.819,3.9,3.9,0,0,1-.14-1.085,3.589,3.589,0,0,1,.259-1.47,2.6,2.6,0,0,1,.623-.9,2.308,2.308,0,0,1,.483-.336,3.394,3.394,0,0,1,.686-.266,6.749,6.749,0,0,1,.931-.182,9.617,9.617,0,0,1,1.232-.07q.42,0,.84.028t.812.07q.392.042.742.1t.6.112V55.4q-.546-.07-1.3-.14t-1.638-.07a2.857,2.857,0,0,0-1.638.294.881.881,0,0,0-.21.343,1.338,1.338,0,0,0-.07.441,1.962,1.962,0,0,0,.049.476.619.619,0,0,0,.189.322,1.5,1.5,0,0,0,.476.28q.336.14.77.294t.917.315q.483.161.924.329a6.378,6.378,0,0,1,.8.364,1.952,1.952,0,0,1,.539.406,2.184,2.184,0,0,1,.378.826A4.5,4.5,0,0,1,385.344,60.976Z" transform="translate(0 0)" fill="#ff694b"/><path d="M392.274,64V59.338a2.809,2.809,0,0,0-.084-.756,1.278,1.278,0,0,0-.252-.49.811.811,0,0,0-.434-.231,3.1,3.1,0,0,0-.672-.063,5.654,5.654,0,0,0-.84.063,4.65,4.65,0,0,0-.686.147V64h-2.254V56.146h1.806l.434,1.148h.112c.046-.056.116-.133.21-.231l.28-.294c.093-.1.18-.187.259-.266a1,1,0,0,1,.147-.133,2.416,2.416,0,0,1,.707-.238,5.453,5.453,0,0,1,1.1-.1,2.43,2.43,0,0,1,1.848.6,1.836,1.836,0,0,1,.448.875,5.472,5.472,0,0,1,.126,1.239V64Z" transform="translate(0 0)" fill="#ff694b"/><path d="M401.57,64l-.364-1.134h-.1q-.112.14-.252.308c-.094.112-.182.217-.266.315s-.159.182-.224.252a.749.749,0,0,1-.126.119,2.364,2.364,0,0,1-.693.189,6.27,6.27,0,0,1-.987.077,3.567,3.567,0,0,1-1.078-.133,1.447,1.447,0,0,1-.644-.4,1.872,1.872,0,0,1-.385-.721,3.2,3.2,0,0,1-.133-.931,2.531,2.531,0,0,1,.259-1.267,2.066,2.066,0,0,1,.581-.665,3.188,3.188,0,0,1,.686-.308,7.785,7.785,0,0,1,.952-.245q.532-.1,1.141-.189t1.253-.14a4.094,4.094,0,0,0-.049-.616.988.988,0,0,0-.175-.476.855.855,0,0,0-.539-.266,4.688,4.688,0,0,0-.833-.07q-.364,0-.742.028c-.252.019-.5.042-.735.07s-.464.056-.679.084-.406.056-.574.084v-1.5q.266-.07.644-.161t.826-.168q.448-.077.952-.126c.336-.033.681-.049,1.036-.049a6.423,6.423,0,0,1,1.512.147,2.314,2.314,0,0,1,.938.441,1.9,1.9,0,0,1,.5.833,4.92,4.92,0,0,1,.175,1.463V64Zm-.378-3.528q-.378.014-.784.035t-.77.063q-.364.042-.623.091a.828.828,0,0,0-.343.119,1.112,1.112,0,0,0-.21.784,1.1,1.1,0,0,0,.224.784.821.821,0,0,0,.357.168,2.766,2.766,0,0,0,.623.056,6.6,6.6,0,0,0,.868-.056,4.54,4.54,0,0,0,.658-.126Z" transform="translate(0 0)" fill="#ff694b"/><path d="M407.884,67.612H405.63V56.132h1.89l.35,1.106h.112c.065-.084.145-.177.238-.28s.185-.2.273-.287l.245-.245a1.059,1.059,0,0,1,.182-.154,2.339,2.339,0,0,1,.651-.2,5.124,5.124,0,0,1,1-.091,4.224,4.224,0,0,1,1.141.14,1.94,1.94,0,0,1,.833.462,2.7,2.7,0,0,1,.665,1.176,7.124,7.124,0,0,1,.231,2.016,6.168,6.168,0,0,1-.343,2.205,3.517,3.517,0,0,1-.889,1.379,3.673,3.673,0,0,1-2.478.742,8,8,0,0,1-1.057-.063,6.851,6.851,0,0,1-.791-.147Zm3.262-7.6a2.892,2.892,0,0,0-.476-1.974,1.16,1.16,0,0,0-.546-.273,3.543,3.543,0,0,0-.784-.077,3.987,3.987,0,0,0-.812.084,5.161,5.161,0,0,0-.644.168V62.4q.224.029.6.049t.728.021a3.293,3.293,0,0,0,.777-.084,1.349,1.349,0,0,0,.581-.294,1.6,1.6,0,0,0,.42-.742A4.73,4.73,0,0,0,411.146,60.01Z" transform="translate(0 0)" fill="#ff694b"/><path d="M420.988,61.578a3.424,3.424,0,0,1-.168,1.127,1.753,1.753,0,0,1-.567.8,2.675,2.675,0,0,1-1.05.483,6.889,6.889,0,0,1-1.617.161,11.075,11.075,0,0,1-1.47-.1q-.728-.1-1.218-.21V62.32q.21.042.49.084t.588.077q.308.035.637.056t.623.021a4.931,4.931,0,0,0,.777-.049,1.459,1.459,0,0,0,.476-.147.522.522,0,0,0,.238-.245.867.867,0,0,0,.063-.343.585.585,0,0,0-.14-.448,1.112,1.112,0,0,0-.455-.238q-.315-.1-.861-.252a7.64,7.64,0,0,1-1.295-.42,1.815,1.815,0,0,1-.735-.546,1.512,1.512,0,0,1-.287-.581,3.272,3.272,0,0,1-.091-.833,3.02,3.02,0,0,1,.168-1.036,1.814,1.814,0,0,1,.553-.784,2.679,2.679,0,0,1,1.008-.5,5.749,5.749,0,0,1,1.533-.175,13.025,13.025,0,0,1,1.5.077q.658.077,1.078.161v1.554q-.434-.07-1.015-.112t-1.183-.042a4.745,4.745,0,0,0-.756.049,1.336,1.336,0,0,0-.448.14.475.475,0,0,0-.21.231.867.867,0,0,0-.056.322,1.177,1.177,0,0,0,.021.238.37.37,0,0,0,.1.182.836.836,0,0,0,.392.252,7.793,7.793,0,0,0,.868.252,12.493,12.493,0,0,1,1.281.357,2.007,2.007,0,0,1,.763.441,1.6,1.6,0,0,1,.343.581A2.94,2.94,0,0,1,420.988,61.578Z" transform="translate(0 0)" fill="#ff694b"/><path d="M427.9,64V59.436a4.818,4.818,0,0,0-.063-.84.928.928,0,0,0-.259-.532,1.686,1.686,0,0,0-1.162-.308,3.758,3.758,0,0,0-.812.084,3.421,3.421,0,0,0-.658.21V64h-2.268V52.744h2.268v4.522h.1c.056-.075.124-.159.2-.252s.161-.185.245-.273.163-.166.238-.231a1.376,1.376,0,0,1,.182-.14,2.161,2.161,0,0,1,.721-.252,5.546,5.546,0,0,1,1.1-.1,3.813,3.813,0,0,1,1.12.14,1.745,1.745,0,0,1,.728.42,1.812,1.812,0,0,1,.462.924,6.781,6.781,0,0,1,.112,1.316V64Z" transform="translate(0 0)" fill="#ff694b"/><path d="M439.972,59.912a6.032,6.032,0,0,1-.322,2.072,3.188,3.188,0,0,1-.854,1.344,4.354,4.354,0,0,1-2.968.826,5.708,5.708,0,0,1-1.82-.245,2.788,2.788,0,0,1-1.12-.665,2.968,2.968,0,0,1-.651-1.12,5.794,5.794,0,0,1-.259-1.9,5.723,5.723,0,0,1,.336-2.079,3.05,3.05,0,0,1,2.058-1.96,5.927,5.927,0,0,1,1.778-.231,5.815,5.815,0,0,1,1.792.231,2.726,2.726,0,0,1,1.092.623,2.884,2.884,0,0,1,.686,1.141A6.16,6.16,0,0,1,439.972,59.912Zm-4.046,2.52a2.585,2.585,0,0,0,.77-.1,1.278,1.278,0,0,0,.532-.3,1.707,1.707,0,0,0,.357-.714,4.757,4.757,0,0,0,.133-1.246,5.229,5.229,0,0,0-.119-1.288,1.814,1.814,0,0,0-.315-.672,1.62,1.62,0,0,0-1.246-.392,2.567,2.567,0,0,0-.777.1,1.131,1.131,0,0,0-.5.287,1.581,1.581,0,0,0-.371.707,4.682,4.682,0,0,0-.147,1.295,5.948,5.948,0,0,0,.1,1.176,1.523,1.523,0,0,0,.294.7,1.319,1.319,0,0,0,.511.329A2.206,2.206,0,0,0,435.926,62.432Z" transform="translate(0 0)" fill="#ff694b"/><path d="M446.454,57.8H444.27v3.486a2.279,2.279,0,0,0,.056.553.734.734,0,0,0,.182.343.642.642,0,0,0,.336.168,2.71,2.71,0,0,0,.518.042q.35,0,.735-.028t.6-.056l-.168,1.54q-.364.1-.917.189a7.588,7.588,0,0,1-1.225.091,3.755,3.755,0,0,1-1.106-.14,1.7,1.7,0,0,1-.728-.427,1.682,1.682,0,0,1-.406-.735,4.024,4.024,0,0,1-.126-1.078V57.8H440.91l.112-1.652h.994V54.858l2.254-.42v1.708h2.506Z" transform="translate(0 0)" fill="#ff694b"/><path d="M601.448,55.4h-2.954V64h-2.268V55.4h-3.15l.35-1.9h8.358Z" transform="translate(0 0)" fill="#ff694b"/><path d="M601.225,60.318a4.8,4.8,0,0,1,.966-3.3,3.892,3.892,0,0,1,3.024-1.064,5.154,5.154,0,0,1,1.582.21,2.312,2.312,0,0,1,1.617,1.687,5.726,5.726,0,0,1,.174,1.491v1.246h-5.054a3.562,3.562,0,0,0,.105.819,1.2,1.2,0,0,0,.321.567,1.456,1.456,0,0,0,.638.336,4.115,4.115,0,0,0,1.063.112,13.909,13.909,0,0,0,1.526-.077q.7-.076,1.147-.119l-.2,1.484q-.56.154-1.323.3a9.1,9.1,0,0,1-1.715.147,5.926,5.926,0,0,1-1.834-.245,2.828,2.828,0,0,1-1.2-.728,2.788,2.788,0,0,1-.651-1.2A6.321,6.321,0,0,1,601.225,60.318Zm3.822-2.828a1.4,1.4,0,0,0-1.113.385,2.24,2.24,0,0,0-.385,1.309h2.828V58.96a1.746,1.746,0,0,0-.295-1.092A1.238,1.238,0,0,0,605.047,57.49Z" transform="translate(0 0)" fill="#ff694b"/><path d="M616.092,61.578a3.4,3.4,0,0,1-.168,1.127,1.752,1.752,0,0,1-.566.8,2.672,2.672,0,0,1-1.05.483,6.9,6.9,0,0,1-1.617.161,11.052,11.052,0,0,1-1.47-.1c-.486-.065-.892-.135-1.219-.21V62.32c.141.028.3.056.49.084s.383.054.588.077.418.042.637.056.428.021.623.021a4.933,4.933,0,0,0,.777-.049,1.462,1.462,0,0,0,.477-.147.529.529,0,0,0,.238-.245.884.884,0,0,0,.063-.343.583.583,0,0,0-.141-.448,1.1,1.1,0,0,0-.455-.238q-.313-.1-.86-.252a7.64,7.64,0,0,1-1.295-.42,1.815,1.815,0,0,1-.735-.546,1.506,1.506,0,0,1-.287-.581,3.3,3.3,0,0,1-.091-.833,3.009,3.009,0,0,1,.168-1.036,1.807,1.807,0,0,1,.554-.784,2.668,2.668,0,0,1,1.008-.5,5.744,5.744,0,0,1,1.533-.175,13.037,13.037,0,0,1,1.5.077q.656.077,1.078.161v1.554q-.435-.07-1.016-.112c-.388-.028-.781-.042-1.184-.042a4.754,4.754,0,0,0-.756.049,1.329,1.329,0,0,0-.447.14.473.473,0,0,0-.211.231.867.867,0,0,0-.056.322,1.181,1.181,0,0,0,.021.238.375.375,0,0,0,.105.182.836.836,0,0,0,.393.252,7.7,7.7,0,0,0,.867.252,12.436,12.436,0,0,1,1.281.357,2.009,2.009,0,0,1,.764.441,1.61,1.61,0,0,1,.343.581A2.942,2.942,0,0,1,616.092,61.578Z" transform="translate(0 0)" fill="#ff694b"/><path d="M622.477,57.8h-2.184v3.486a2.285,2.285,0,0,0,.055.553.739.739,0,0,0,.183.343.642.642,0,0,0,.336.168,2.709,2.709,0,0,0,.519.042q.349,0,.734-.028t.6-.056l-.168,1.54q-.365.1-.918.189a7.577,7.577,0,0,1-1.225.091,3.749,3.749,0,0,1-1.105-.14,1.7,1.7,0,0,1-.729-.427,1.682,1.682,0,0,1-.406-.735,4.027,4.027,0,0,1-.125-1.078V57.8h-1.107l.113-1.652h.994V54.858l2.254-.42v1.708H622.8Z" transform="translate(0 0)" fill="#ff694b"/><path d="M549.286,121h-3.542l-3.178-10.5h2.562l2.282,8.358h.35l2.478-8.358h2.506Z" transform="translate(0 0)" fill="#01bbbb"/><path d="M552.7,117.318a4.8,4.8,0,0,1,.966-3.3,3.893,3.893,0,0,1,3.024-1.064,5.149,5.149,0,0,1,1.582.21,2.312,2.312,0,0,1,1.617,1.687,5.682,5.682,0,0,1,.175,1.491v1.246h-5.054a3.617,3.617,0,0,0,.105.819,1.2,1.2,0,0,0,.322.567,1.448,1.448,0,0,0,.637.336,4.117,4.117,0,0,0,1.064.112,13.906,13.906,0,0,0,1.526-.077q.7-.076,1.148-.119l-.2,1.484q-.56.154-1.323.3a9.1,9.1,0,0,1-1.715.147,5.921,5.921,0,0,1-1.834-.245,2.825,2.825,0,0,1-1.2-.728,2.787,2.787,0,0,1-.651-1.2A6.319,6.319,0,0,1,552.7,117.318Zm3.822-2.828a1.4,1.4,0,0,0-1.113.385,2.24,2.24,0,0,0-.385,1.309h2.828v-.224a1.75,1.75,0,0,0-.294-1.092A1.241,1.241,0,0,0,556.523,114.49Z" transform="translate(0 0)" fill="#01bbbb"/><path d="M563.635,113.146l.42,1.26h.1l.189-.266q.119-.168.245-.336c.084-.112.161-.21.231-.294a.992.992,0,0,1,.147-.154,2.164,2.164,0,0,1,.574-.231,3.442,3.442,0,0,1,.91-.1,5.694,5.694,0,0,1,.728.042v2.058q-.238-.056-.6-.119a5.078,5.078,0,0,0-.854-.063,4.179,4.179,0,0,0-.924.1,2.658,2.658,0,0,0-.728.266V121h-2.24v-7.854Z" transform="translate(0 0)" fill="#01bbbb"/><path d="M573.967,118.578a3.424,3.424,0,0,1-.168,1.127,1.753,1.753,0,0,1-.567.8,2.675,2.675,0,0,1-1.05.483,6.889,6.889,0,0,1-1.617.161,11.075,11.075,0,0,1-1.47-.1q-.728-.1-1.218-.21V119.32q.21.042.49.084t.588.077q.308.035.637.056t.623.021a4.931,4.931,0,0,0,.777-.049,1.459,1.459,0,0,0,.476-.147.522.522,0,0,0,.238-.245.867.867,0,0,0,.063-.343.585.585,0,0,0-.14-.448,1.112,1.112,0,0,0-.455-.238q-.315-.1-.861-.252a7.64,7.64,0,0,1-1.295-.42,1.815,1.815,0,0,1-.735-.546,1.512,1.512,0,0,1-.287-.581,3.272,3.272,0,0,1-.091-.833,3.02,3.02,0,0,1,.168-1.036,1.814,1.814,0,0,1,.553-.784,2.679,2.679,0,0,1,1.008-.5,5.749,5.749,0,0,1,1.533-.175,13.025,13.025,0,0,1,1.5.077q.658.077,1.078.161v1.554q-.434-.07-1.015-.112t-1.183-.042a4.745,4.745,0,0,0-.756.049,1.336,1.336,0,0,0-.448.14.475.475,0,0,0-.21.231.867.867,0,0,0-.056.322,1.177,1.177,0,0,0,.021.238.37.37,0,0,0,.1.182.836.836,0,0,0,.392.252,7.793,7.793,0,0,0,.868.252,12.493,12.493,0,0,1,1.281.357,2.007,2.007,0,0,1,.763.441,1.6,1.6,0,0,1,.343.581A2.94,2.94,0,0,1,573.967,118.578Z" transform="translate(0 0)" fill="#01bbbb"/><path d="M578.083,110.724a1.862,1.862,0,0,1-.077.546.759.759,0,0,1-.231.378.84.84,0,0,1-.392.154,3.478,3.478,0,0,1-.574.042,2.38,2.38,0,0,1-.6-.063,1.17,1.17,0,0,1-.392-.175.932.932,0,0,1-.2-.336,1.513,1.513,0,0,1-.084-.532,1.311,1.311,0,0,1,.119-.588.948.948,0,0,1,.273-.35,1.686,1.686,0,0,1,.35-.133,2.172,2.172,0,0,1,.574-.063,1.567,1.567,0,0,1,.924.21.672.672,0,0,1,.231.35A1.826,1.826,0,0,1,578.083,110.724ZM575.675,121v-7.854h2.24V121Z" transform="translate(0 0)" fill="#01bbbb"/><path d="M587.743,116.912a6.032,6.032,0,0,1-.322,2.072,3.188,3.188,0,0,1-.854,1.344,4.354,4.354,0,0,1-2.968.826,5.708,5.708,0,0,1-1.82-.245,2.788,2.788,0,0,1-1.12-.665,2.968,2.968,0,0,1-.651-1.12,5.794,5.794,0,0,1-.259-1.9,5.723,5.723,0,0,1,.336-2.079,3.05,3.05,0,0,1,2.058-1.96,5.927,5.927,0,0,1,1.778-.231,5.815,5.815,0,0,1,1.792.231,2.726,2.726,0,0,1,1.092.623,2.884,2.884,0,0,1,.686,1.141A6.16,6.16,0,0,1,587.743,116.912Zm-4.046,2.52a2.585,2.585,0,0,0,.77-.1,1.278,1.278,0,0,0,.532-.3,1.707,1.707,0,0,0,.357-.714,4.757,4.757,0,0,0,.133-1.246,5.229,5.229,0,0,0-.119-1.288,1.814,1.814,0,0,0-.315-.672,1.62,1.62,0,0,0-1.246-.392,2.567,2.567,0,0,0-.777.1,1.131,1.131,0,0,0-.5.287,1.581,1.581,0,0,0-.371.707,4.682,4.682,0,0,0-.147,1.295,5.948,5.948,0,0,0,.1,1.176,1.523,1.523,0,0,0,.294.7,1.319,1.319,0,0,0,.511.329A2.206,2.206,0,0,0,583.7,119.432Z" transform="translate(0 0)" fill="#01bbbb"/><path d="M594.757,121v-4.662a2.809,2.809,0,0,0-.084-.756,1.278,1.278,0,0,0-.252-.49.811.811,0,0,0-.434-.231,3.1,3.1,0,0,0-.672-.063,5.654,5.654,0,0,0-.84.063,4.65,4.65,0,0,0-.686.147V121h-2.254v-7.854h1.806l.434,1.148h.112c.046-.056.116-.133.21-.231l.28-.294c.093-.1.18-.187.259-.266a1,1,0,0,1,.147-.133,2.416,2.416,0,0,1,.707-.238,5.453,5.453,0,0,1,1.1-.1,2.43,2.43,0,0,1,1.848.6,1.836,1.836,0,0,1,.448.875,5.472,5.472,0,0,1,.126,1.239V121Z" transform="translate(0 0)" fill="#01bbbb"/><path d="M610.646,112.488q-.461-.07-1.092-.147a12,12,0,0,0-1.428-.077,6.251,6.251,0,0,0-1.547.154,2.235,2.235,0,0,0-.9.434,2.321,2.321,0,0,0-.651,1.113,6.107,6.107,0,0,0-.244,1.827,6.459,6.459,0,0,0,.2,1.736,2.382,2.382,0,0,0,.524,1.05,3.183,3.183,0,0,0,2.31.616,12.186,12.186,0,0,0,1.512-.091q.729-.091,1.316-.217v1.708a12.709,12.709,0,0,1-1.441.371,10,10,0,0,1-1.988.175,7.007,7.007,0,0,1-2.128-.28,3.319,3.319,0,0,1-1.442-.9,4.024,4.024,0,0,1-.84-1.547,8.34,8.34,0,0,1-.309-2.471,7.744,7.744,0,0,1,.441-2.814,4.337,4.337,0,0,1,1.113-1.708,4.556,4.556,0,0,1,1.49-.777,7.125,7.125,0,0,1,2.164-.287,11.808,11.808,0,0,1,1.631.1q.693.1,1.309.238Z" transform="translate(0 0)" fill="#01bbbb"/><path d="M619.929,116.912a6.032,6.032,0,0,1-.322,2.072,3.18,3.18,0,0,1-.854,1.344,4.352,4.352,0,0,1-2.967.826,5.7,5.7,0,0,1-1.82-.245,2.784,2.784,0,0,1-1.12-.665,2.968,2.968,0,0,1-.651-1.12,5.794,5.794,0,0,1-.259-1.9,5.734,5.734,0,0,1,.336-2.079,3.051,3.051,0,0,1,2.058-1.96,5.933,5.933,0,0,1,1.778-.231,5.817,5.817,0,0,1,1.792.231,2.724,2.724,0,0,1,1.092.623,2.89,2.89,0,0,1,.687,1.141A6.16,6.16,0,0,1,619.929,116.912Zm-4.046,2.52a2.584,2.584,0,0,0,.77-.1,1.275,1.275,0,0,0,.532-.3,1.69,1.69,0,0,0,.356-.714,4.715,4.715,0,0,0,.133-1.246,5.234,5.234,0,0,0-.118-1.288,1.8,1.8,0,0,0-.315-.672,1.618,1.618,0,0,0-1.246-.392,2.563,2.563,0,0,0-.776.1,1.128,1.128,0,0,0-.5.287,1.576,1.576,0,0,0-.371.707,4.7,4.7,0,0,0-.146,1.295,5.952,5.952,0,0,0,.1,1.176,1.518,1.518,0,0,0,.294.7,1.315,1.315,0,0,0,.511.329A2.205,2.205,0,0,0,615.883,119.432Z" transform="translate(0 0)" fill="#01bbbb"/><path d="M626.942,121v-4.662a2.829,2.829,0,0,0-.084-.756,1.278,1.278,0,0,0-.252-.49.811.811,0,0,0-.435-.231,3.092,3.092,0,0,0-.672-.063,5.664,5.664,0,0,0-.84.063,4.684,4.684,0,0,0-.686.147V121h-2.254v-7.854h1.806l.435,1.148h.111c.047-.056.117-.133.211-.231l.279-.294c.094-.1.18-.187.26-.266a.933.933,0,0,1,.146-.133,2.421,2.421,0,0,1,.707-.238,5.453,5.453,0,0,1,1.1-.1,2.433,2.433,0,0,1,1.849.6,1.835,1.835,0,0,1,.447.875,5.468,5.468,0,0,1,.127,1.239V121Z" transform="translate(0 0)" fill="#01bbbb"/><path d="M636.07,114.8h-2.184v3.486a2.279,2.279,0,0,0,.056.553.739.739,0,0,0,.183.343.638.638,0,0,0,.336.168,2.7,2.7,0,0,0,.518.042q.35,0,.734-.028c.258-.019.455-.037.6-.056l-.168,1.54c-.242.065-.549.128-.917.189a7.581,7.581,0,0,1-1.226.091,3.753,3.753,0,0,1-1.105-.14,1.709,1.709,0,0,1-.729-.427,1.691,1.691,0,0,1-.405-.735,4.024,4.024,0,0,1-.126-1.078V114.8h-1.106l.112-1.652h.994v-1.288l2.254-.42v1.708h2.506Z" transform="translate(0 0)" fill="#01bbbb"/><path d="M639.514,113.146l.421,1.26h.1c.047-.065.11-.154.188-.266s.162-.224.246-.336.16-.21.23-.294a1.022,1.022,0,0,1,.146-.154,2.164,2.164,0,0,1,.574-.231,3.445,3.445,0,0,1,.91-.1,5.705,5.705,0,0,1,.729.042v2.058q-.239-.056-.6-.119a5.093,5.093,0,0,0-.854-.063,4.184,4.184,0,0,0-.925.1,2.654,2.654,0,0,0-.728.266V121h-2.239v-7.854Z" transform="translate(0 0)" fill="#01bbbb"/><path d="M651.75,116.912a6.032,6.032,0,0,1-.322,2.072,3.188,3.188,0,0,1-.854,1.344,4.355,4.355,0,0,1-2.968.826,5.706,5.706,0,0,1-1.82-.245,2.8,2.8,0,0,1-1.12-.665,2.954,2.954,0,0,1-.65-1.12,6.833,6.833,0,0,1,.076-3.983,3.054,3.054,0,0,1,2.059-1.96,5.926,5.926,0,0,1,1.777-.231,5.82,5.82,0,0,1,1.793.231,2.724,2.724,0,0,1,1.092.623,2.878,2.878,0,0,1,.686,1.141A6.16,6.16,0,0,1,651.75,116.912Zm-4.046,2.52a2.591,2.591,0,0,0,.771-.1,1.277,1.277,0,0,0,.531-.3,1.7,1.7,0,0,0,.357-.714,4.757,4.757,0,0,0,.133-1.246,5.177,5.177,0,0,0-.119-1.288,1.8,1.8,0,0,0-.314-.672,1.619,1.619,0,0,0-1.246-.392,2.57,2.57,0,0,0-.777.1,1.13,1.13,0,0,0-.5.287,1.567,1.567,0,0,0-.371.707,4.661,4.661,0,0,0-.147,1.295,5.871,5.871,0,0,0,.1,1.176,1.518,1.518,0,0,0,.293.7,1.319,1.319,0,0,0,.512.329A2.2,2.2,0,0,0,647.7,119.432Z" transform="translate(0 0)" fill="#01bbbb"/><path d="M655.754,109.744v8.68a1.14,1.14,0,0,0,.217.805.906.906,0,0,0,.666.217,3.322,3.322,0,0,0,.447-.028l.406-.056v1.512c-.215.047-.482.1-.8.161a5.256,5.256,0,0,1-.973.091,2.267,2.267,0,0,1-1.681-.532,2.574,2.574,0,0,1-.519-1.82v-9.03Z" transform="translate(0 0)" fill="#01bbbb"/><path d="M577.362,160l-.938-3.038h-3.654L571.762,160h-2.31l3.682-10.5h3.3l3.4,10.5Zm-2.534-8.47h-.378l-1.148,3.626h2.576Z" transform="translate(0 0)" fill="#01bbbb"/><path d="M583.34,148.744v8.68a1.14,1.14,0,0,0,.217.805.9.9,0,0,0,.665.217,3.337,3.337,0,0,0,.448-.028l.406-.056v1.512q-.322.07-.8.161a5.258,5.258,0,0,1-.973.091,2.268,2.268,0,0,1-1.68-.532,2.572,2.572,0,0,1-.518-1.82v-9.03Z" transform="translate(0 0)" fill="#01bbbb"/><path d="M585.833,156.318a4.8,4.8,0,0,1,.966-3.3,3.893,3.893,0,0,1,3.024-1.064,5.149,5.149,0,0,1,1.582.21,2.312,2.312,0,0,1,1.617,1.687,5.682,5.682,0,0,1,.175,1.491v1.246h-5.054a3.617,3.617,0,0,0,.105.819,1.2,1.2,0,0,0,.322.567,1.448,1.448,0,0,0,.637.336,4.117,4.117,0,0,0,1.064.112,13.906,13.906,0,0,0,1.526-.077q.7-.076,1.148-.119l-.2,1.484q-.56.154-1.323.3a9.1,9.1,0,0,1-1.715.147,5.921,5.921,0,0,1-1.834-.245,2.825,2.825,0,0,1-1.2-.728,2.787,2.787,0,0,1-.651-1.2A6.319,6.319,0,0,1,585.833,156.318Zm3.822-2.828a1.4,1.4,0,0,0-1.113.385,2.24,2.24,0,0,0-.385,1.309h2.828v-.224a1.75,1.75,0,0,0-.294-1.092A1.241,1.241,0,0,0,589.654,153.49Z" transform="translate(0 0)" fill="#01bbbb"/><path d="M596.766,152.146l.42,1.26h.1l.189-.266q.119-.168.245-.336c.084-.112.161-.21.231-.294a.992.992,0,0,1,.147-.154,2.164,2.164,0,0,1,.574-.231,3.442,3.442,0,0,1,.91-.1,5.694,5.694,0,0,1,.728.042v2.058q-.238-.056-.6-.119a5.078,5.078,0,0,0-.854-.063,4.179,4.179,0,0,0-.924.1,2.658,2.658,0,0,0-.728.266V160h-2.24v-7.854Z" transform="translate(0 0)" fill="#01bbbb"/><path d="M606.469,153.8h-2.185v3.486a2.279,2.279,0,0,0,.056.553.729.729,0,0,0,.182.343.646.646,0,0,0,.336.168,2.716,2.716,0,0,0,.519.042c.233,0,.478-.009.735-.028s.455-.037.595-.056l-.168,1.54c-.243.065-.548.128-.917.189a7.6,7.6,0,0,1-1.225.091,3.756,3.756,0,0,1-1.106-.14,1.694,1.694,0,0,1-.728-.427,1.673,1.673,0,0,1-.406-.735,4.024,4.024,0,0,1-.126-1.078V153.8h-1.106l.112-1.652h.994v-1.288l2.254-.42v1.708h2.506Z" transform="translate(0 0)" fill="#01bbbb"/><path d="M610.527,149.724a1.879,1.879,0,0,1-.076.546.763.763,0,0,1-.231.378.836.836,0,0,1-.392.154,3.48,3.48,0,0,1-.574.042,2.376,2.376,0,0,1-.6-.063,1.168,1.168,0,0,1-.393-.175.925.925,0,0,1-.2-.336,1.5,1.5,0,0,1-.084-.532,1.311,1.311,0,0,1,.118-.588.948.948,0,0,1,.273-.35,1.686,1.686,0,0,1,.35-.133,2.172,2.172,0,0,1,.574-.063,1.568,1.568,0,0,1,.924.21.675.675,0,0,1,.231.35A1.843,1.843,0,0,1,610.527,149.724ZM608.119,160v-7.854h2.24V160Z" transform="translate(0 0)" fill="#01bbbb"/><path d="M617.766,160v-4.662a2.789,2.789,0,0,0-.084-.756,1.278,1.278,0,0,0-.252-.49.812.812,0,0,0-.434-.231,3.111,3.111,0,0,0-.672-.063,5.644,5.644,0,0,0-.84.063,4.616,4.616,0,0,0-.687.147V160h-2.254v-7.854h1.806l.434,1.148h.113c.046-.056.115-.133.209-.231l.28-.294c.093-.1.18-.187.259-.266a1.079,1.079,0,0,1,.147-.133,2.41,2.41,0,0,1,.707-.238,5.453,5.453,0,0,1,1.1-.1,2.428,2.428,0,0,1,1.848.6,1.837,1.837,0,0,1,.449.875,5.476,5.476,0,0,1,.125,1.239V160Z" transform="translate(0 0)" fill="#01bbbb"/><path d="M629.638,159.132a7.859,7.859,0,0,1-.273,2.289,3.365,3.365,0,0,1-.8,1.407,3.11,3.11,0,0,1-1.295.742,6.771,6.771,0,0,1-2,.252c-.3,0-.6-.014-.889-.042s-.574-.063-.84-.1-.514-.088-.742-.14-.423-.1-.582-.147v-1.652q.448.07,1.191.168a12.063,12.063,0,0,0,1.581.1,6.154,6.154,0,0,0,1.281-.1,1.57,1.57,0,0,0,.692-.3,1.265,1.265,0,0,0,.336-.735,7.39,7.39,0,0,0,.1-1.337v-.742h-.112c-.056.075-.133.166-.23.273s-.2.21-.295.308-.186.187-.266.266a1.88,1.88,0,0,1-.175.161,2.586,2.586,0,0,1-.56.168,5.006,5.006,0,0,1-2.059-.049,2.285,2.285,0,0,1-.867-.427,2.514,2.514,0,0,1-.764-1.155,6,6,0,0,1-.273-1.981,6.157,6.157,0,0,1,.33-2.135,3.181,3.181,0,0,1,.916-1.379,3.146,3.146,0,0,1,1.162-.609,5.875,5.875,0,0,1,1.652-.2,7.591,7.591,0,0,1,1.582.147q.686.147,1.092.259l.715-.28h.392Zm-5.544-3.024a2.6,2.6,0,0,0,.476,1.89,1.946,1.946,0,0,0,1.315.364,4.568,4.568,0,0,0,.826-.077,3.335,3.335,0,0,0,.687-.189v-4.3q-.224-.028-.581-.056t-.777-.028a3.326,3.326,0,0,0-.826.091,1.333,1.333,0,0,0-.588.315,1.84,1.84,0,0,0-.385.728A4.408,4.408,0,0,0,624.094,156.108Z" transform="translate(0 0)" fill="#01bbbb"/><path d="M572.931,198.068h5.026L577.523,200h-6.86V189.5h2.268Z" transform="translate(0 0)" fill="#01bbbb"/><path d="M586.847,195.912a6.032,6.032,0,0,1-.322,2.072,3.188,3.188,0,0,1-.854,1.344,4.354,4.354,0,0,1-2.968.826,5.708,5.708,0,0,1-1.82-.245,2.788,2.788,0,0,1-1.12-.665,2.968,2.968,0,0,1-.651-1.12,5.794,5.794,0,0,1-.259-1.9,5.723,5.723,0,0,1,.336-2.079,3.05,3.05,0,0,1,2.058-1.96,5.927,5.927,0,0,1,1.778-.231,5.815,5.815,0,0,1,1.792.231,2.726,2.726,0,0,1,1.092.623,2.884,2.884,0,0,1,.686,1.141A6.16,6.16,0,0,1,586.847,195.912Zm-4.046,2.52a2.585,2.585,0,0,0,.77-.1,1.278,1.278,0,0,0,.532-.3,1.707,1.707,0,0,0,.357-.714,4.757,4.757,0,0,0,.133-1.246,5.229,5.229,0,0,0-.119-1.288,1.814,1.814,0,0,0-.315-.672,1.62,1.62,0,0,0-1.246-.392,2.567,2.567,0,0,0-.777.1,1.131,1.131,0,0,0-.5.287,1.581,1.581,0,0,0-.371.707,4.682,4.682,0,0,0-.147,1.295,5.948,5.948,0,0,0,.1,1.176,1.523,1.523,0,0,0,.294.7,1.319,1.319,0,0,0,.511.329A2.206,2.206,0,0,0,582.8,198.432Z" transform="translate(0 0)" fill="#01bbbb"/><path d="M596.073,199.132a7.876,7.876,0,0,1-.273,2.289,3.365,3.365,0,0,1-.8,1.407,3.1,3.1,0,0,1-1.295.742,6.771,6.771,0,0,1-2,.252q-.448,0-.889-.042t-.84-.1q-.4-.063-.742-.14t-.581-.147v-1.652q.448.07,1.19.168a12.071,12.071,0,0,0,1.582.1,6.154,6.154,0,0,0,1.281-.1,1.577,1.577,0,0,0,.693-.3,1.274,1.274,0,0,0,.336-.735,7.486,7.486,0,0,0,.1-1.337v-.742h-.112q-.084.112-.231.273t-.294.308l-.266.266a1.934,1.934,0,0,1-.175.161,2.574,2.574,0,0,1-.56.168,5,5,0,0,1-2.058-.049,2.293,2.293,0,0,1-.868-.427,2.521,2.521,0,0,1-.763-1.155,6,6,0,0,1-.273-1.981,6.17,6.17,0,0,1,.329-2.135,3.183,3.183,0,0,1,.917-1.379,3.135,3.135,0,0,1,1.162-.609,5.874,5.874,0,0,1,1.652-.2,7.6,7.6,0,0,1,1.582.147q.686.147,1.092.259l.714-.28h.392Zm-5.544-3.024A2.6,2.6,0,0,0,591,198a1.945,1.945,0,0,0,1.316.364,4.577,4.577,0,0,0,.826-.077,3.356,3.356,0,0,0,.686-.189v-4.3q-.224-.028-.581-.056t-.777-.028a3.315,3.315,0,0,0-.826.091,1.325,1.325,0,0,0-.588.315,1.833,1.833,0,0,0-.385.728A4.386,4.386,0,0,0,590.529,196.108Z" transform="translate(0 0)" fill="#01bbbb"/><path d="M605.691,199.132a7.893,7.893,0,0,1-.273,2.289,3.365,3.365,0,0,1-.8,1.407,3.1,3.1,0,0,1-1.295.742,6.771,6.771,0,0,1-2,.252q-.448,0-.889-.042t-.84-.1q-.4-.063-.742-.14t-.581-.147v-1.652q.448.07,1.19.168a12.071,12.071,0,0,0,1.582.1,6.154,6.154,0,0,0,1.281-.1,1.585,1.585,0,0,0,.693-.3,1.284,1.284,0,0,0,.336-.735,7.585,7.585,0,0,0,.1-1.337v-.742h-.111q-.085.112-.231.273t-.294.308l-.266.266a1.989,1.989,0,0,1-.176.161,2.563,2.563,0,0,1-.561.168,5,5,0,0,1-2.057-.049,2.293,2.293,0,0,1-.868-.427,2.521,2.521,0,0,1-.763-1.155,6,6,0,0,1-.273-1.981,6.17,6.17,0,0,1,.329-2.135,3.183,3.183,0,0,1,.917-1.379,3.135,3.135,0,0,1,1.162-.609,5.876,5.876,0,0,1,1.652-.2,7.6,7.6,0,0,1,1.582.147q.686.147,1.092.259l.714-.28h.393Zm-5.544-3.024a2.6,2.6,0,0,0,.476,1.89,1.945,1.945,0,0,0,1.316.364,4.585,4.585,0,0,0,.826-.077,3.377,3.377,0,0,0,.686-.189v-4.3q-.224-.028-.581-.056c-.237-.019-.5-.028-.776-.028a3.3,3.3,0,0,0-.826.091,1.322,1.322,0,0,0-.588.315,1.833,1.833,0,0,0-.385.728A4.386,4.386,0,0,0,600.147,196.108Z" transform="translate(0 0)" fill="#01bbbb"/><path d="M610.3,189.724a1.846,1.846,0,0,1-.077.546.756.756,0,0,1-.231.378.836.836,0,0,1-.392.154,3.476,3.476,0,0,1-.573.042,2.384,2.384,0,0,1-.6-.063,1.154,1.154,0,0,1-.392-.175.925.925,0,0,1-.2-.336,1.524,1.524,0,0,1-.084-.532,1.324,1.324,0,0,1,.118-.588.958.958,0,0,1,.273-.35,1.708,1.708,0,0,1,.35-.133,2.182,2.182,0,0,1,.574-.063,1.564,1.564,0,0,1,.924.21.669.669,0,0,1,.231.35A1.811,1.811,0,0,1,610.3,189.724ZM607.889,200v-7.854h2.24V200Z" transform="translate(0 0)" fill="#01bbbb"/><path d="M617.535,200v-4.662a2.829,2.829,0,0,0-.084-.756,1.305,1.305,0,0,0-.252-.49.818.818,0,0,0-.435-.231,3.105,3.105,0,0,0-.672-.063,5.654,5.654,0,0,0-.84.063,4.672,4.672,0,0,0-.687.147V200h-2.254v-7.854h1.807l.434,1.148h.112c.046-.056.116-.133.21-.231l.279-.294c.094-.1.18-.187.26-.266a1.038,1.038,0,0,1,.146-.133,2.421,2.421,0,0,1,.707-.238,5.464,5.464,0,0,1,1.1-.1,2.429,2.429,0,0,1,1.848.6,1.836,1.836,0,0,1,.448.875,5.472,5.472,0,0,1,.126,1.239V200Z" transform="translate(0 0)" fill="#01bbbb"/><path d="M629.406,199.132a7.859,7.859,0,0,1-.273,2.289,3.355,3.355,0,0,1-.8,1.407,3.1,3.1,0,0,1-1.295.742,6.764,6.764,0,0,1-1.994.252q-.448,0-.89-.042c-.294-.028-.573-.063-.84-.1s-.514-.088-.742-.14-.423-.1-.581-.147v-1.652q.448.07,1.19.168a12.074,12.074,0,0,0,1.581.1,6.148,6.148,0,0,0,1.281-.1,1.58,1.58,0,0,0,.693-.3,1.277,1.277,0,0,0,.336-.735,7.492,7.492,0,0,0,.1-1.337v-.742h-.111c-.057.075-.133.166-.23.273s-.2.21-.295.308l-.266.266a1.989,1.989,0,0,1-.176.161,2.568,2.568,0,0,1-.56.168,5,5,0,0,1-2.058-.049,2.3,2.3,0,0,1-.868-.427,2.513,2.513,0,0,1-.763-1.155,6,6,0,0,1-.273-1.981,6.158,6.158,0,0,1,.329-2.135,3.183,3.183,0,0,1,.917-1.379,3.139,3.139,0,0,1,1.162-.609,5.875,5.875,0,0,1,1.652-.2,7.6,7.6,0,0,1,1.582.147q.686.147,1.092.259l.714-.28h.392Zm-5.544-3.024a2.609,2.609,0,0,0,.476,1.89,1.948,1.948,0,0,0,1.316.364,4.568,4.568,0,0,0,.826-.077,3.341,3.341,0,0,0,.686-.189v-4.3q-.223-.028-.58-.056c-.238-.019-.5-.028-.777-.028a3.315,3.315,0,0,0-.826.091,1.323,1.323,0,0,0-.588.315,1.84,1.84,0,0,0-.385.728A4.4,4.4,0,0,0,623.862,196.108Z" transform="translate(0 0)" fill="#01bbbb"/><path d="M490.5,55.4h-2.954V64h-2.268V55.4h-3.15l.35-1.9h8.358Z" transform="translate(0 0)" fill="#ff694b"/><path d="M492.833,56.146l.42,1.26h.1l.189-.266q.119-.168.245-.336c.084-.112.161-.21.231-.294a.992.992,0,0,1,.147-.154,2.164,2.164,0,0,1,.574-.231,3.442,3.442,0,0,1,.91-.1,5.694,5.694,0,0,1,.728.042V58.12q-.238-.056-.6-.119a5.078,5.078,0,0,0-.854-.063,4.179,4.179,0,0,0-.924.1,2.658,2.658,0,0,0-.728.266V64h-2.24V56.146Z" transform="translate(0 0)" fill="#ff694b"/><path d="M502.283,64l-.364-1.134h-.1q-.112.14-.252.308c-.094.112-.182.217-.266.315s-.159.182-.224.252a.749.749,0,0,1-.126.119,2.364,2.364,0,0,1-.693.189,6.27,6.27,0,0,1-.987.077,3.567,3.567,0,0,1-1.078-.133,1.447,1.447,0,0,1-.644-.4,1.872,1.872,0,0,1-.385-.721,3.2,3.2,0,0,1-.133-.931,2.531,2.531,0,0,1,.259-1.267,2.066,2.066,0,0,1,.581-.665,3.188,3.188,0,0,1,.686-.308,7.785,7.785,0,0,1,.952-.245q.532-.1,1.141-.189t1.253-.14a4.094,4.094,0,0,0-.049-.616.988.988,0,0,0-.175-.476.855.855,0,0,0-.539-.266,4.688,4.688,0,0,0-.833-.07q-.364,0-.742.028c-.252.019-.5.042-.735.07s-.464.056-.679.084-.406.056-.574.084v-1.5q.266-.07.644-.161t.826-.168q.448-.077.952-.126c.336-.033.681-.049,1.036-.049a6.423,6.423,0,0,1,1.512.147,2.314,2.314,0,0,1,.938.441,1.9,1.9,0,0,1,.5.833,4.92,4.92,0,0,1,.175,1.463V64Zm-.378-3.528q-.378.014-.784.035t-.77.063q-.364.042-.623.091a.828.828,0,0,0-.343.119,1.112,1.112,0,0,0-.21.784,1.1,1.1,0,0,0,.224.784.821.821,0,0,0,.357.168,2.766,2.766,0,0,0,.623.056,6.6,6.6,0,0,0,.868-.056,4.54,4.54,0,0,0,.658-.126Z" transform="translate(0 0)" fill="#ff694b"/><path d="M511.537,64V59.338a2.809,2.809,0,0,0-.084-.756,1.278,1.278,0,0,0-.252-.49.811.811,0,0,0-.434-.231,3.1,3.1,0,0,0-.672-.063,5.654,5.654,0,0,0-.84.063,4.65,4.65,0,0,0-.686.147V64h-2.254V56.146h1.806l.434,1.148h.112c.046-.056.116-.133.21-.231l.28-.294c.093-.1.18-.187.259-.266a1,1,0,0,1,.147-.133,2.416,2.416,0,0,1,.707-.238,5.453,5.453,0,0,1,1.1-.1,2.43,2.43,0,0,1,1.848.6,1.836,1.836,0,0,1,.448.875,5.472,5.472,0,0,1,.126,1.239V64Z" transform="translate(0 0)" fill="#ff694b"/><path d="M521.575,61.578a3.424,3.424,0,0,1-.168,1.127,1.753,1.753,0,0,1-.567.8,2.675,2.675,0,0,1-1.05.483,6.889,6.889,0,0,1-1.617.161,11.076,11.076,0,0,1-1.47-.1q-.728-.1-1.218-.21V62.32q.21.042.49.084t.588.077q.308.035.637.056t.623.021a4.931,4.931,0,0,0,.777-.049,1.459,1.459,0,0,0,.476-.147.522.522,0,0,0,.238-.245.867.867,0,0,0,.063-.343.585.585,0,0,0-.14-.448,1.112,1.112,0,0,0-.455-.238q-.315-.1-.861-.252a7.64,7.64,0,0,1-1.295-.42,1.815,1.815,0,0,1-.735-.546,1.512,1.512,0,0,1-.287-.581,3.272,3.272,0,0,1-.091-.833,3.02,3.02,0,0,1,.168-1.036,1.814,1.814,0,0,1,.553-.784,2.679,2.679,0,0,1,1.008-.5,5.749,5.749,0,0,1,1.533-.175,13.025,13.025,0,0,1,1.5.077q.658.077,1.078.161v1.554q-.434-.07-1.015-.112t-1.183-.042a4.745,4.745,0,0,0-.756.049,1.336,1.336,0,0,0-.448.14.475.475,0,0,0-.21.231.867.867,0,0,0-.056.322,1.177,1.177,0,0,0,.021.238.37.37,0,0,0,.1.182.836.836,0,0,0,.392.252,7.793,7.793,0,0,0,.868.252,12.493,12.493,0,0,1,1.281.357,2.007,2.007,0,0,1,.763.441,1.6,1.6,0,0,1,.343.581A2.94,2.94,0,0,1,521.575,61.578Z" transform="translate(0 0)" fill="#ff694b"/><path d="M527.721,57.8h-1.946V64h-2.24V57.8h-1.148l.126-1.652h1.022v-.77a3.794,3.794,0,0,1,.154-1.127,2.068,2.068,0,0,1,1.365-1.4,4.03,4.03,0,0,1,1.323-.189,8.821,8.821,0,0,1,1.022.056q.476.056.8.112V54.34c-.14-.009-.32-.023-.539-.042s-.459-.028-.721-.028a1.768,1.768,0,0,0-.6.084.805.805,0,0,0-.357.238.822.822,0,0,0-.168.371,2.57,2.57,0,0,0-.042.483v.7H528Z" transform="translate(0 0)" fill="#ff694b"/><path d="M536.485,59.912a6.032,6.032,0,0,1-.322,2.072,3.188,3.188,0,0,1-.854,1.344,4.354,4.354,0,0,1-2.968.826,5.708,5.708,0,0,1-1.82-.245,2.788,2.788,0,0,1-1.12-.665,2.968,2.968,0,0,1-.651-1.12,5.794,5.794,0,0,1-.259-1.9,5.723,5.723,0,0,1,.336-2.079,3.05,3.05,0,0,1,2.058-1.96,5.927,5.927,0,0,1,1.778-.231,5.815,5.815,0,0,1,1.792.231,2.726,2.726,0,0,1,1.092.623,2.884,2.884,0,0,1,.686,1.141A6.16,6.16,0,0,1,536.485,59.912Zm-4.046,2.52a2.585,2.585,0,0,0,.77-.1,1.278,1.278,0,0,0,.532-.3,1.707,1.707,0,0,0,.357-.714,4.757,4.757,0,0,0,.133-1.246,5.229,5.229,0,0,0-.119-1.288,1.814,1.814,0,0,0-.315-.672,1.62,1.62,0,0,0-1.246-.392,2.567,2.567,0,0,0-.777.1,1.131,1.131,0,0,0-.5.287,1.581,1.581,0,0,0-.371.707,4.682,4.682,0,0,0-.147,1.295,5.948,5.948,0,0,0,.1,1.176,1.523,1.523,0,0,0,.294.7,1.319,1.319,0,0,0,.511.329A2.206,2.206,0,0,0,532.438,62.432Z" transform="translate(0 0)" fill="#ff694b"/><path d="M540.083,56.146l.42,1.26h.1l.189-.266q.119-.168.245-.336c.084-.112.161-.21.231-.294a.992.992,0,0,1,.147-.154,2.164,2.164,0,0,1,.574-.231,3.442,3.442,0,0,1,.91-.1,5.694,5.694,0,0,1,.728.042V58.12q-.238-.056-.6-.119a5.078,5.078,0,0,0-.854-.063,4.179,4.179,0,0,0-.924.1,2.658,2.658,0,0,0-.728.266V64h-2.24V56.146Z" transform="translate(0 0)" fill="#ff694b"/><path d="M554.643,64V59.408a4.252,4.252,0,0,0-.07-.868.913.913,0,0,0-.252-.49,1.5,1.5,0,0,0-1.022-.28,3.666,3.666,0,0,0-.742.07q-.335.07-.574.14V64h-2.254V59.408a2.169,2.169,0,0,0-.28-1.33,1.3,1.3,0,0,0-1.008-.308,3.405,3.405,0,0,0-.77.084q-.364.084-.588.154V64h-2.268V56.146h1.834l.406,1.148h.112q.07-.1.21-.259l.273-.315c.088-.1.17-.194.245-.273a.9.9,0,0,1,.14-.133,2.457,2.457,0,0,1,.679-.2,5.659,5.659,0,0,1,1-.084,4.05,4.05,0,0,1,1.022.1,1.584,1.584,0,0,1,.658.343,1.732,1.732,0,0,1,.5.812h.1c.047-.056.117-.138.21-.245s.189-.212.287-.315l.259-.273a.919.919,0,0,1,.14-.133,2.646,2.646,0,0,1,.7-.2,5.6,5.6,0,0,1,1.022-.091,3.916,3.916,0,0,1,.994.1,1.579,1.579,0,0,1,.658.343,1.729,1.729,0,0,1,.5.9,5.953,5.953,0,0,1,.133,1.358V64Z" transform="translate(0 0)" fill="#ff694b"/><path d="M662.825,53.5q.839,0,1.478.063a7.179,7.179,0,0,1,1.113.189,3.364,3.364,0,0,1,.825.329,3.006,3.006,0,0,1,.616.469,3.493,3.493,0,0,1,.813,1.505,8.782,8.782,0,0,1,.308,2.513,8.037,8.037,0,0,1-.119,1.4,7.473,7.473,0,0,1-.329,1.253,5.157,5.157,0,0,1-.5,1.036,3.571,3.571,0,0,1-.645.763,3.427,3.427,0,0,1-1.463.749,9.135,9.135,0,0,1-2.246.231h-3.92V53.5Zm-1.792,1.9v6.678h1.33q.532,0,.932-.028a6.031,6.031,0,0,0,.692-.084,2.42,2.42,0,0,0,.5-.147,1.329,1.329,0,0,0,.364-.231,2.478,2.478,0,0,0,.561-1.029,6.094,6.094,0,0,0,.252-1.911,6.508,6.508,0,0,0-.176-1.659,2.484,2.484,0,0,0-.482-1,1.5,1.5,0,0,0-.91-.483,8.4,8.4,0,0,0-1.442-.1Z" transform="translate(0 0)" fill="#ff694b"/><path d="M669.56,60.318a4.8,4.8,0,0,1,.966-3.3,3.894,3.894,0,0,1,3.023-1.064,5.145,5.145,0,0,1,1.582.21,2.312,2.312,0,0,1,1.617,1.687,5.638,5.638,0,0,1,.176,1.491v1.246h-5.055a3.673,3.673,0,0,0,.105.819,1.2,1.2,0,0,0,.322.567,1.441,1.441,0,0,0,.637.336,4.118,4.118,0,0,0,1.064.112,13.9,13.9,0,0,0,1.525-.077q.7-.076,1.148-.119l-.2,1.484q-.561.154-1.323.3a9.094,9.094,0,0,1-1.715.147,5.917,5.917,0,0,1-1.834-.245,2.822,2.822,0,0,1-1.2-.728,2.787,2.787,0,0,1-.65-1.2A6.318,6.318,0,0,1,669.56,60.318Zm3.821-2.828a1.4,1.4,0,0,0-1.112.385,2.24,2.24,0,0,0-.386,1.309h2.828V58.96a1.753,1.753,0,0,0-.293-1.092A1.244,1.244,0,0,0,673.381,57.49Z" transform="translate(0 0)" fill="#ff694b"/><path d="M680.969,67.612h-2.254V56.132h1.891l.35,1.106h.111c.065-.084.145-.177.238-.28s.185-.2.273-.287l.244-.245a1.077,1.077,0,0,1,.183-.154,2.332,2.332,0,0,1,.651-.2,5.113,5.113,0,0,1,1-.091,4.223,4.223,0,0,1,1.142.14,1.943,1.943,0,0,1,.833.462,2.692,2.692,0,0,1,.665,1.176,7.139,7.139,0,0,1,.231,2.016,6.166,6.166,0,0,1-.344,2.205,3.517,3.517,0,0,1-.889,1.379,3.674,3.674,0,0,1-2.479.742,8,8,0,0,1-1.057-.063,6.851,6.851,0,0,1-.791-.147Zm3.262-7.6a2.892,2.892,0,0,0-.476-1.974,1.155,1.155,0,0,0-.546-.273,3.546,3.546,0,0,0-.784-.077,3.976,3.976,0,0,0-.812.084,5.1,5.1,0,0,0-.645.168V62.4q.224.029.6.049t.729.021a3.3,3.3,0,0,0,.777-.084,1.345,1.345,0,0,0,.58-.294,1.591,1.591,0,0,0,.42-.742A4.713,4.713,0,0,0,684.23,60.01Z" transform="translate(0 0)" fill="#ff694b"/><path d="M690.545,52.744v8.68a1.14,1.14,0,0,0,.217.805.9.9,0,0,0,.665.217,3.337,3.337,0,0,0,.448-.028l.406-.056v1.512q-.322.07-.8.161a5.259,5.259,0,0,1-.974.091,2.27,2.27,0,0,1-1.681-.532,2.575,2.575,0,0,1-.518-1.82v-9.03Z" transform="translate(0 0)" fill="#ff694b"/><path d="M701.018,59.912a6.032,6.032,0,0,1-.322,2.072,3.189,3.189,0,0,1-.854,1.344,4.354,4.354,0,0,1-2.968.826,5.71,5.71,0,0,1-1.82-.245,2.78,2.78,0,0,1-1.119-.665,2.981,2.981,0,0,1-.652-1.12,5.823,5.823,0,0,1-.258-1.9,5.713,5.713,0,0,1,.336-2.079,3.046,3.046,0,0,1,2.058-1.96,5.928,5.928,0,0,1,1.778-.231,5.811,5.811,0,0,1,1.791.231,2.728,2.728,0,0,1,1.093.623,2.89,2.89,0,0,1,.687,1.141A6.16,6.16,0,0,1,701.018,59.912Zm-4.047,2.52a2.58,2.58,0,0,0,.77-.1,1.279,1.279,0,0,0,.533-.3,1.713,1.713,0,0,0,.356-.714,4.757,4.757,0,0,0,.133-1.246,5.283,5.283,0,0,0-.118-1.288,1.829,1.829,0,0,0-.315-.672,1.621,1.621,0,0,0-1.246-.392,2.563,2.563,0,0,0-.776.1,1.132,1.132,0,0,0-.5.287,1.6,1.6,0,0,0-.371.707,4.7,4.7,0,0,0-.146,1.295,6.027,6.027,0,0,0,.1,1.176,1.528,1.528,0,0,0,.295.7,1.319,1.319,0,0,0,.51.329A2.213,2.213,0,0,0,696.971,62.432Z" transform="translate(0 0)" fill="#ff694b"/><path d="M706.267,67.808h-2.226L705.385,64h-1.148l-2.506-7.854h2.437l1.61,5.88h.293l1.82-5.88h2.366Z" transform="translate(0 0)" fill="#ff694b"/><path d="M746.688,53.5q.841,0,1.477.063a7.1,7.1,0,0,1,1.113.189,3.356,3.356,0,0,1,.826.329,2.979,2.979,0,0,1,.616.469,3.482,3.482,0,0,1,.812,1.505,8.779,8.779,0,0,1,.309,2.513,8.037,8.037,0,0,1-.119,1.4,7.665,7.665,0,0,1-.329,1.253,5.054,5.054,0,0,1-.5,1.036,3.654,3.654,0,0,1-.644.763,3.433,3.433,0,0,1-1.463.749,9.152,9.152,0,0,1-2.248.231h-3.92V53.5ZM744.9,55.4v6.678h1.33q.532,0,.931-.028a6,6,0,0,0,.693-.084,2.42,2.42,0,0,0,.5-.147,1.3,1.3,0,0,0,.364-.231,2.478,2.478,0,0,0,.56-1.029,6.094,6.094,0,0,0,.252-1.911,6.557,6.557,0,0,0-.175-1.659,2.471,2.471,0,0,0-.483-1,1.494,1.494,0,0,0-.91-.483,8.374,8.374,0,0,0-1.441-.1Z" transform="translate(0 0)" fill="#ff694b"/><path d="M761.4,59.912a6.032,6.032,0,0,1-.322,2.072,3.189,3.189,0,0,1-.854,1.344,4.354,4.354,0,0,1-2.968.826,5.71,5.71,0,0,1-1.82-.245,2.78,2.78,0,0,1-1.119-.665,2.981,2.981,0,0,1-.652-1.12,5.823,5.823,0,0,1-.258-1.9,5.713,5.713,0,0,1,.336-2.079,3.046,3.046,0,0,1,2.058-1.96,5.928,5.928,0,0,1,1.778-.231,5.811,5.811,0,0,1,1.791.231,2.728,2.728,0,0,1,1.093.623,2.89,2.89,0,0,1,.687,1.141A6.16,6.16,0,0,1,761.4,59.912Zm-4.047,2.52a2.58,2.58,0,0,0,.77-.1,1.279,1.279,0,0,0,.533-.3,1.713,1.713,0,0,0,.356-.714,4.757,4.757,0,0,0,.133-1.246,5.283,5.283,0,0,0-.118-1.288,1.829,1.829,0,0,0-.315-.672,1.621,1.621,0,0,0-1.246-.392,2.563,2.563,0,0,0-.776.1,1.132,1.132,0,0,0-.5.287,1.6,1.6,0,0,0-.371.707,4.7,4.7,0,0,0-.146,1.295,6.027,6.027,0,0,0,.1,1.176,1.528,1.528,0,0,0,.295.7,1.319,1.319,0,0,0,.51.329A2.213,2.213,0,0,0,757.355,62.432Z" transform="translate(0 0)" fill="#ff694b"/><path d="M767.338,57.7a4.421,4.421,0,0,0-1.072.112,1.271,1.271,0,0,0-.678.392,2.987,2.987,0,0,0-.449,1.9,4.164,4.164,0,0,0,.141,1.2,1.256,1.256,0,0,0,1.043.973,4.26,4.26,0,0,0,.9.084q.6,0,1.127-.049t.918-.1v1.5q-.5.154-1.162.294a7.4,7.4,0,0,1-1.526.14,6.033,6.033,0,0,1-1.532-.175,2.7,2.7,0,0,1-1.113-.567,2.794,2.794,0,0,1-.812-1.232,6.9,6.9,0,0,1,.008-3.913,3.371,3.371,0,0,1,.818-1.351,3.947,3.947,0,0,1,2.842-.952,9.314,9.314,0,0,1,1.449.1q.609.1,1.029.2v1.6c-.215-.019-.486-.046-.812-.084A10,10,0,0,0,767.338,57.7Z" transform="translate(0 0)" fill="#ff694b"/><path d="M776.578,64l-.406-1.2h-.112c-.047.056-.117.143-.21.259s-.189.231-.287.343-.189.212-.273.3a1.034,1.034,0,0,1-.154.147,2.537,2.537,0,0,1-.686.189,6.441,6.441,0,0,1-1.05.077,3.5,3.5,0,0,1-1.106-.147,1.94,1.94,0,0,1-.728-.427,1.884,1.884,0,0,1-.5-.9,5.251,5.251,0,0,1-.133-1.253V56.146h2.254v4.578a4.785,4.785,0,0,0,.057.812.983.983,0,0,0,.237.518,1.585,1.585,0,0,0,1.106.308,4.73,4.73,0,0,0,.881-.077,5.951,5.951,0,0,0,.673-.161V56.146h2.269V64Z" transform="translate(0 0)" fill="#ff694b"/><path d="M790.423,64V59.408a4.257,4.257,0,0,0-.069-.868.913.913,0,0,0-.252-.49,1.508,1.508,0,0,0-1.022-.28,3.666,3.666,0,0,0-.742.07q-.335.07-.573.14V64H785.51V59.408a2.16,2.16,0,0,0-.281-1.33,1.3,1.3,0,0,0-1.008-.308,3.4,3.4,0,0,0-.77.084c-.242.056-.439.107-.588.154V64H780.6V56.146h1.834l.405,1.148h.112c.047-.065.116-.151.21-.259l.272-.315c.089-.1.17-.194.246-.273a.963.963,0,0,1,.139-.133,2.472,2.472,0,0,1,.68-.2,5.663,5.663,0,0,1,1-.084,4.057,4.057,0,0,1,1.022.1,1.587,1.587,0,0,1,.658.343,1.739,1.739,0,0,1,.5.812h.1c.047-.056.116-.138.21-.245s.188-.212.286-.315.186-.193.26-.273a.9.9,0,0,1,.14-.133,2.646,2.646,0,0,1,.7-.2,5.591,5.591,0,0,1,1.021-.091,3.911,3.911,0,0,1,.994.1,1.581,1.581,0,0,1,.658.343,1.732,1.732,0,0,1,.5.9,5.95,5.95,0,0,1,.134,1.358V64Z" transform="translate(0 0)" fill="#ff694b"/><path d="M794.512,60.318a4.8,4.8,0,0,1,.965-3.3A3.9,3.9,0,0,1,798.5,55.95a5.145,5.145,0,0,1,1.582.21,2.312,2.312,0,0,1,1.617,1.687,5.682,5.682,0,0,1,.175,1.491v1.246H796.82a3.673,3.673,0,0,0,.105.819,1.2,1.2,0,0,0,.322.567,1.452,1.452,0,0,0,.637.336,4.123,4.123,0,0,0,1.064.112,13.89,13.89,0,0,0,1.525-.077q.7-.076,1.148-.119l-.2,1.484c-.374.1-.814.2-1.324.3a9.086,9.086,0,0,1-1.715.147,5.926,5.926,0,0,1-1.834-.245,2.834,2.834,0,0,1-1.2-.728,2.8,2.8,0,0,1-.65-1.2A6.321,6.321,0,0,1,794.512,60.318Zm3.821-2.828a1.394,1.394,0,0,0-1.112.385,2.233,2.233,0,0,0-.386,1.309h2.828V58.96a1.753,1.753,0,0,0-.294-1.092A1.241,1.241,0,0,0,798.333,57.49Z" transform="translate(0 0)" fill="#ff694b"/><path d="M808.861,64V59.338a2.829,2.829,0,0,0-.084-.756,1.305,1.305,0,0,0-.252-.49.818.818,0,0,0-.435-.231,3.105,3.105,0,0,0-.672-.063,5.654,5.654,0,0,0-.84.063,4.672,4.672,0,0,0-.687.147V64h-2.254V56.146h1.807l.434,1.148h.112c.046-.056.116-.133.21-.231l.279-.294c.094-.1.18-.187.26-.266a1.038,1.038,0,0,1,.146-.133,2.421,2.421,0,0,1,.707-.238,5.464,5.464,0,0,1,1.1-.1,2.429,2.429,0,0,1,1.848.6,1.836,1.836,0,0,1,.448.875,5.472,5.472,0,0,1,.126,1.239V64Z" transform="translate(0 0)" fill="#ff694b"/><path d="M817.988,57.8H815.8v3.486a2.279,2.279,0,0,0,.056.553.739.739,0,0,0,.183.343.638.638,0,0,0,.336.168,2.7,2.7,0,0,0,.518.042q.35,0,.734-.028c.258-.019.455-.037.6-.056l-.168,1.54c-.242.065-.549.128-.917.189a7.581,7.581,0,0,1-1.226.091,3.753,3.753,0,0,1-1.105-.14,1.709,1.709,0,0,1-.729-.427,1.691,1.691,0,0,1-.405-.735,4.024,4.024,0,0,1-.126-1.078V57.8h-1.106l.112-1.652h.994V54.858l2.254-.42v1.708h2.506Z" transform="translate(0 0)" fill="#ff694b"/><path d="M59.568,71.5q.84,0,1.477.063a7.139,7.139,0,0,1,1.113.189,3.36,3.36,0,0,1,.826.329,2.993,2.993,0,0,1,.616.469,3.487,3.487,0,0,1,.812,1.505,8.78,8.78,0,0,1,.308,2.513,8.037,8.037,0,0,1-.119,1.4,7.567,7.567,0,0,1-.329,1.253,5.1,5.1,0,0,1-.5,1.036,3.612,3.612,0,0,1-.644.763,3.43,3.43,0,0,1-1.463.749A9.143,9.143,0,0,1,59.414,82h-3.92V71.5Zm-1.792,1.9v6.678h1.33q.532,0,.931-.028a6.014,6.014,0,0,0,.693-.084,2.42,2.42,0,0,0,.5-.147,1.315,1.315,0,0,0,.364-.231,2.478,2.478,0,0,0,.56-1.029,6.094,6.094,0,0,0,.252-1.911,6.532,6.532,0,0,0-.175-1.659,2.477,2.477,0,0,0-.483-1,1.5,1.5,0,0,0-.91-.483,8.388,8.388,0,0,0-1.442-.1Z" transform="translate(0 0)" fill="#8b969e"/><path d="M71.5,82l-.364-1.134h-.1q-.112.14-.252.308c-.094.112-.182.217-.266.315s-.159.182-.224.252a.749.749,0,0,1-.126.119,2.364,2.364,0,0,1-.693.189,6.27,6.27,0,0,1-.987.077,3.567,3.567,0,0,1-1.078-.133,1.447,1.447,0,0,1-.644-.4,1.872,1.872,0,0,1-.385-.721,3.2,3.2,0,0,1-.133-.931,2.531,2.531,0,0,1,.259-1.267,2.066,2.066,0,0,1,.581-.665,3.188,3.188,0,0,1,.686-.308,7.785,7.785,0,0,1,.952-.245q.532-.1,1.141-.189t1.253-.14a4.094,4.094,0,0,0-.049-.616.988.988,0,0,0-.175-.476.855.855,0,0,0-.539-.266,4.688,4.688,0,0,0-.833-.07q-.364,0-.742.028c-.252.019-.5.042-.735.07s-.464.056-.679.084-.406.056-.574.084v-1.5q.266-.07.644-.161t.826-.168q.448-.077.952-.126c.336-.033.681-.049,1.036-.049a6.423,6.423,0,0,1,1.512.147,2.314,2.314,0,0,1,.938.441,1.9,1.9,0,0,1,.5.833,4.92,4.92,0,0,1,.175,1.463V82Zm-.378-3.528q-.378.014-.784.035t-.77.063q-.364.042-.623.091a.828.828,0,0,0-.343.119,1.112,1.112,0,0,0-.21.784,1.1,1.1,0,0,0,.224.784.821.821,0,0,0,.357.168,2.766,2.766,0,0,0,.623.056,6.6,6.6,0,0,0,.868-.056,4.54,4.54,0,0,0,.658-.126Z" transform="translate(0 0)" fill="#8b969e"/><path d="M80.218,75.8H78.034v3.486a2.279,2.279,0,0,0,.056.553.734.734,0,0,0,.182.343.642.642,0,0,0,.336.168,2.71,2.71,0,0,0,.518.042q.35,0,.735-.028t.6-.056l-.168,1.54q-.364.1-.917.189a7.588,7.588,0,0,1-1.225.091,3.755,3.755,0,0,1-1.106-.14,1.7,1.7,0,0,1-.728-.427,1.682,1.682,0,0,1-.406-.735,4.024,4.024,0,0,1-.126-1.078V75.8H74.674l.112-1.652h.994V72.858l2.254-.42v1.708H80.54Z" transform="translate(0 0)" fill="#8b969e"/><path d="M86.714,82l-.364-1.134h-.1q-.112.14-.252.308c-.094.112-.182.217-.266.315s-.159.182-.224.252a.749.749,0,0,1-.126.119,2.364,2.364,0,0,1-.693.189,6.27,6.27,0,0,1-.987.077,3.567,3.567,0,0,1-1.078-.133,1.447,1.447,0,0,1-.644-.4,1.872,1.872,0,0,1-.385-.721,3.2,3.2,0,0,1-.133-.931,2.531,2.531,0,0,1,.259-1.267,2.066,2.066,0,0,1,.581-.665,3.188,3.188,0,0,1,.686-.308,7.785,7.785,0,0,1,.952-.245q.532-.1,1.141-.189t1.253-.14a4.094,4.094,0,0,0-.049-.616.988.988,0,0,0-.175-.476.855.855,0,0,0-.539-.266,4.688,4.688,0,0,0-.833-.07q-.364,0-.742.028c-.252.019-.5.042-.735.07s-.464.056-.679.084-.406.056-.574.084v-1.5q.266-.07.644-.161t.826-.168q.448-.077.952-.126c.336-.033.681-.049,1.036-.049a6.423,6.423,0,0,1,1.512.147,2.314,2.314,0,0,1,.938.441,1.9,1.9,0,0,1,.5.833,4.92,4.92,0,0,1,.175,1.463V82Zm-.378-3.528q-.378.014-.784.035t-.77.063q-.364.042-.623.091a.828.828,0,0,0-.343.119,1.112,1.112,0,0,0-.21.784,1.1,1.1,0,0,0,.224.784.821.821,0,0,0,.357.168,2.766,2.766,0,0,0,.623.056,6.6,6.6,0,0,0,.868-.056,4.54,4.54,0,0,0,.658-.126Z" transform="translate(0 0)" fill="#8b969e"/><path d="M45.827,96.868h5.026L50.419,98.8h-6.86V88.3h2.268Z" transform="translate(0 0)" fill="#8b969e"/><path d="M59.743,94.712a6.032,6.032,0,0,1-.322,2.072,3.188,3.188,0,0,1-.854,1.344,4.354,4.354,0,0,1-2.968.826,5.708,5.708,0,0,1-1.82-.245,2.788,2.788,0,0,1-1.12-.665,2.968,2.968,0,0,1-.651-1.12,5.794,5.794,0,0,1-.259-1.9,5.723,5.723,0,0,1,.336-2.079,3.05,3.05,0,0,1,2.058-1.96,5.927,5.927,0,0,1,1.778-.231,5.815,5.815,0,0,1,1.792.231,2.726,2.726,0,0,1,1.092.623,2.884,2.884,0,0,1,.686,1.141A6.16,6.16,0,0,1,59.743,94.712ZM55.7,97.232a2.585,2.585,0,0,0,.77-.1,1.278,1.278,0,0,0,.532-.3,1.707,1.707,0,0,0,.357-.714,4.757,4.757,0,0,0,.133-1.246,5.229,5.229,0,0,0-.119-1.288,1.814,1.814,0,0,0-.315-.672,1.62,1.62,0,0,0-1.246-.392,2.567,2.567,0,0,0-.777.1,1.131,1.131,0,0,0-.5.287,1.581,1.581,0,0,0-.371.707,4.682,4.682,0,0,0-.147,1.295,5.948,5.948,0,0,0,.1,1.176,1.523,1.523,0,0,0,.294.7,1.319,1.319,0,0,0,.511.329A2.206,2.206,0,0,0,55.7,97.232Z" transform="translate(0 0)" fill="#8b969e"/><path d="M66.393,98.8l-.364-1.134h-.1q-.112.14-.252.308c-.094.112-.182.217-.266.315s-.159.182-.224.252a.749.749,0,0,1-.126.119,2.364,2.364,0,0,1-.693.189,6.27,6.27,0,0,1-.987.077,3.567,3.567,0,0,1-1.078-.133,1.447,1.447,0,0,1-.644-.4,1.872,1.872,0,0,1-.385-.721,3.2,3.2,0,0,1-.133-.931,2.531,2.531,0,0,1,.259-1.267,2.066,2.066,0,0,1,.581-.665,3.188,3.188,0,0,1,.686-.308,7.785,7.785,0,0,1,.952-.245q.532-.1,1.141-.189t1.253-.14a4.094,4.094,0,0,0-.049-.616.988.988,0,0,0-.175-.476.855.855,0,0,0-.539-.266,4.688,4.688,0,0,0-.833-.07q-.364,0-.742.028c-.252.019-.5.042-.735.07s-.464.056-.679.084-.406.056-.574.084v-1.5q.266-.07.644-.161t.826-.168q.448-.077.952-.126c.336-.033.681-.049,1.036-.049a6.423,6.423,0,0,1,1.512.147,2.314,2.314,0,0,1,.938.441,1.9,1.9,0,0,1,.5.833,4.92,4.92,0,0,1,.175,1.463V98.8Zm-.378-3.528q-.378.014-.784.035t-.77.063q-.364.042-.623.091a.828.828,0,0,0-.343.119,1.112,1.112,0,0,0-.21.784,1.1,1.1,0,0,0,.224.784.821.821,0,0,0,.357.168,2.766,2.766,0,0,0,.623.056,6.6,6.6,0,0,0,.868-.056,4.54,4.54,0,0,0,.658-.126Z" transform="translate(0 0)" fill="#8b969e"/><path d="M75.647,87.558h2.268V98.8H75.969l-.322-1.148h-.112q-.112.14-.252.294l-.273.3q-.133.147-.252.266a1.933,1.933,0,0,1-.175.161,2.318,2.318,0,0,1-.63.2,4.73,4.73,0,0,1-.966.091,2.834,2.834,0,0,1-2.016-.658,2.72,2.72,0,0,1-.658-1.162,6.857,6.857,0,0,1-.238-2,6.372,6.372,0,0,1,.329-2.177,3.2,3.2,0,0,1,.889-1.379,3.616,3.616,0,0,1,2.478-.77,6.937,6.937,0,0,1,1.085.077q.483.077.791.147Zm-3.262,7.378a2.867,2.867,0,0,0,.462,1.946,1.1,1.1,0,0,0,.539.3,2.956,2.956,0,0,0,.763.091,4.089,4.089,0,0,0,.826-.084,3.654,3.654,0,0,0,.672-.2V92.6q-.238-.028-.609-.056t-.735-.028a3.543,3.543,0,0,0-.784.077,1.266,1.266,0,0,0-.56.273,1.591,1.591,0,0,0-.427.749A4.811,4.811,0,0,0,72.385,94.936Z" transform="translate(0 0)" fill="#8b969e"/><path d="M79.735,95.118a4.8,4.8,0,0,1,.966-3.3,3.893,3.893,0,0,1,3.024-1.064,5.149,5.149,0,0,1,1.582.21,2.312,2.312,0,0,1,1.617,1.687,5.682,5.682,0,0,1,.175,1.491v1.246H82.045a3.617,3.617,0,0,0,.105.819,1.2,1.2,0,0,0,.322.567,1.448,1.448,0,0,0,.637.336,4.117,4.117,0,0,0,1.064.112,13.906,13.906,0,0,0,1.526-.077q.7-.076,1.148-.119l-.2,1.484q-.56.154-1.323.3a9.1,9.1,0,0,1-1.715.147,5.921,5.921,0,0,1-1.834-.245,2.825,2.825,0,0,1-1.2-.728,2.787,2.787,0,0,1-.651-1.2A6.319,6.319,0,0,1,79.735,95.118Zm3.822-2.828a1.4,1.4,0,0,0-1.113.385,2.24,2.24,0,0,0-.385,1.309h2.828V93.76a1.75,1.75,0,0,0-.294-1.092A1.241,1.241,0,0,0,83.557,92.29Z" transform="translate(0 0)" fill="#8b969e"/><path d="M90.668,90.946l.42,1.26h.1l.189-.266q.119-.168.245-.336c.084-.112.161-.21.231-.294A.992.992,0,0,1,92,91.156a2.164,2.164,0,0,1,.574-.231,3.442,3.442,0,0,1,.91-.1,5.694,5.694,0,0,1,.728.042V92.92q-.238-.056-.6-.119a5.078,5.078,0,0,0-.854-.063,4.179,4.179,0,0,0-.924.1,2.658,2.658,0,0,0-.728.266v5.7h-2.24V90.946Z" transform="translate(0 0)" fill="#8b969e"/><path d="M101,96.378a3.424,3.424,0,0,1-.168,1.127,1.753,1.753,0,0,1-.567.8,2.675,2.675,0,0,1-1.05.483,6.889,6.889,0,0,1-1.617.161,11.076,11.076,0,0,1-1.47-.1q-.728-.1-1.218-.21V97.12q.21.042.49.084t.588.077q.308.035.637.056t.623.021a4.931,4.931,0,0,0,.777-.049,1.459,1.459,0,0,0,.476-.147.522.522,0,0,0,.238-.245.867.867,0,0,0,.063-.343.585.585,0,0,0-.14-.448,1.112,1.112,0,0,0-.455-.238q-.315-.1-.861-.252a7.64,7.64,0,0,1-1.295-.42,1.815,1.815,0,0,1-.735-.546,1.512,1.512,0,0,1-.287-.581,3.272,3.272,0,0,1-.091-.833,3.02,3.02,0,0,1,.168-1.036,1.814,1.814,0,0,1,.553-.784,2.679,2.679,0,0,1,1.008-.5,5.749,5.749,0,0,1,1.533-.175,13.025,13.025,0,0,1,1.5.077q.658.077,1.078.161v1.554q-.434-.07-1.015-.112T98.579,92.4a4.745,4.745,0,0,0-.756.049,1.336,1.336,0,0,0-.448.14.475.475,0,0,0-.21.231.867.867,0,0,0-.056.322,1.177,1.177,0,0,0,.021.238.37.37,0,0,0,.1.182.836.836,0,0,0,.392.252,7.793,7.793,0,0,0,.868.252,12.493,12.493,0,0,1,1.281.357,2.007,2.007,0,0,1,.763.441,1.6,1.6,0,0,1,.343.581A2.94,2.94,0,0,1,101,96.378Z" transform="translate(0 0)" fill="#8b969e"/><path d="M1130.113,78.878a3.715,3.715,0,0,1-.3,1.582,2.6,2.6,0,0,1-.707.966,2.652,2.652,0,0,1-1.113.448,7.84,7.84,0,0,1-1.434.126H1121.9V71.5h4.438a5.049,5.049,0,0,1,2.408.378,2.1,2.1,0,0,1,.867,2,2.718,2.718,0,0,1-.188,1.113,2.053,2.053,0,0,1-.343.567,2.865,2.865,0,0,1-.245.154c-.1.056-.2.112-.315.168s-.219.112-.322.168-.2.1-.279.14v.1a3.77,3.77,0,0,1,.413.091c.153.042.306.089.454.14a3.444,3.444,0,0,1,.421.175,1.512,1.512,0,0,1,.321.21,1.533,1.533,0,0,1,.435.742A4.268,4.268,0,0,1,1130.113,78.878Zm-2.828-4.41a1.259,1.259,0,0,0-.377-1.05.728.728,0,0,0-.393-.147,4.6,4.6,0,0,0-.588-.035h-1.75v2.576h1.652a4.732,4.732,0,0,0,.588-.035,1.109,1.109,0,0,0,.42-.119.8.8,0,0,0,.314-.413A1.981,1.981,0,0,0,1127.285,74.468Zm.5,4.4a1.821,1.821,0,0,0-.126-.707.95.95,0,0,0-.309-.427,1.157,1.157,0,0,0-.58-.189q-.372-.035-.651-.035h-1.946v2.73l1.9.014a5.282,5.282,0,0,0,.791-.056,1.015,1.015,0,0,0,.539-.21,1.269,1.269,0,0,0,.266-.434A1.859,1.859,0,0,0,1127.79,78.864Z" transform="translate(0 0)" fill="#8b969e"/><path d="M1131.822,82V71.5h2.281V82Z" transform="translate(0 0)" fill="#8b969e"/><path d="M1116.982,90.2h-2.955v8.6h-2.268V90.2h-3.15l.351-1.9h8.358Z" transform="translate(0 0)" fill="#8b969e"/><path d="M1124.738,94.712a6.032,6.032,0,0,1-.322,2.072,3.2,3.2,0,0,1-.854,1.344,4.356,4.356,0,0,1-2.969.826,5.715,5.715,0,0,1-1.82-.245,2.793,2.793,0,0,1-1.119-.665,2.968,2.968,0,0,1-.651-1.12,5.794,5.794,0,0,1-.259-1.9,5.713,5.713,0,0,1,.336-2.079,3.189,3.189,0,0,1,.868-1.309,3.148,3.148,0,0,1,1.19-.651,5.921,5.921,0,0,1,1.777-.231,5.813,5.813,0,0,1,1.792.231,2.728,2.728,0,0,1,1.093.623,2.878,2.878,0,0,1,.686,1.141A6.16,6.16,0,0,1,1124.738,94.712Zm-4.047,2.52a2.586,2.586,0,0,0,.771-.1,1.281,1.281,0,0,0,.532-.3,1.724,1.724,0,0,0,.357-.714,4.8,4.8,0,0,0,.133-1.246,5.224,5.224,0,0,0-.119-1.288,1.829,1.829,0,0,0-.314-.672,1.622,1.622,0,0,0-1.246-.392,2.57,2.57,0,0,0-.777.1,1.134,1.134,0,0,0-.5.287,1.586,1.586,0,0,0-.371.707,4.661,4.661,0,0,0-.147,1.295,5.944,5.944,0,0,0,.1,1.176,1.528,1.528,0,0,0,.294.7,1.322,1.322,0,0,0,.511.329A2.207,2.207,0,0,0,1120.691,97.232Z" transform="translate(0 0)" fill="#8b969e"/><path d="M1134.174,94.712a6.032,6.032,0,0,1-.322,2.072,3.188,3.188,0,0,1-.854,1.344,4.355,4.355,0,0,1-2.968.826,5.706,5.706,0,0,1-1.82-.245,2.8,2.8,0,0,1-1.12-.665,2.954,2.954,0,0,1-.65-1.12,6.833,6.833,0,0,1,.076-3.983,3.054,3.054,0,0,1,2.059-1.96,5.926,5.926,0,0,1,1.777-.231,5.82,5.82,0,0,1,1.793.231,2.724,2.724,0,0,1,1.092.623,2.878,2.878,0,0,1,.686,1.141A6.16,6.16,0,0,1,1134.174,94.712Zm-4.046,2.52a2.591,2.591,0,0,0,.771-.1,1.277,1.277,0,0,0,.531-.3,1.7,1.7,0,0,0,.357-.714,4.757,4.757,0,0,0,.133-1.246,5.177,5.177,0,0,0-.119-1.288,1.8,1.8,0,0,0-.314-.672,1.619,1.619,0,0,0-1.246-.392,2.57,2.57,0,0,0-.777.1,1.13,1.13,0,0,0-.5.287,1.567,1.567,0,0,0-.371.707,4.661,4.661,0,0,0-.147,1.295,5.871,5.871,0,0,0,.1,1.176,1.518,1.518,0,0,0,.293.7,1.319,1.319,0,0,0,.512.329A2.2,2.2,0,0,0,1130.128,97.232Z" transform="translate(0 0)" fill="#8b969e"/><path d="M1138.178,87.544v8.68a1.14,1.14,0,0,0,.217.805.906.906,0,0,0,.666.217,3.322,3.322,0,0,0,.447-.028l.406-.056v1.512c-.215.047-.482.1-.8.161a5.256,5.256,0,0,1-.973.091,2.267,2.267,0,0,1-1.681-.532,2.574,2.574,0,0,1-.519-1.82v-9.03Z" transform="translate(0 0)" fill="#8b969e"/><path d="M1146.886,96.378a3.424,3.424,0,0,1-.168,1.127,1.754,1.754,0,0,1-.567.8,2.667,2.667,0,0,1-1.049.483,6.9,6.9,0,0,1-1.617.161,11.077,11.077,0,0,1-1.471-.1q-.728-.1-1.218-.21V97.12c.14.028.3.056.489.084s.383.054.589.077.417.042.637.056.427.021.623.021a4.92,4.92,0,0,0,.776-.049,1.462,1.462,0,0,0,.477-.147.519.519,0,0,0,.238-.245.867.867,0,0,0,.063-.343.587.587,0,0,0-.14-.448,1.109,1.109,0,0,0-.455-.238q-.315-.1-.86-.252a7.582,7.582,0,0,1-1.295-.42,1.819,1.819,0,0,1-.736-.546,1.518,1.518,0,0,1-.286-.581,3.252,3.252,0,0,1-.091-.833,3.009,3.009,0,0,1,.168-1.036,1.8,1.8,0,0,1,.553-.784,2.675,2.675,0,0,1,1.008-.5,5.749,5.749,0,0,1,1.533-.175,13.025,13.025,0,0,1,1.5.077q.658.077,1.078.161v1.554q-.434-.07-1.016-.112t-1.183-.042a4.754,4.754,0,0,0-.756.049,1.336,1.336,0,0,0-.448.14.475.475,0,0,0-.21.231.867.867,0,0,0-.056.322,1.181,1.181,0,0,0,.021.238.38.38,0,0,0,.1.182.846.846,0,0,0,.393.252,7.793,7.793,0,0,0,.868.252,12.409,12.409,0,0,1,1.28.357,2.009,2.009,0,0,1,.764.441,1.612,1.612,0,0,1,.344.581A2.97,2.97,0,0,1,1146.886,96.378Z" transform="translate(0 0)" fill="#8b969e"/><path d="M1064,220v33a3,3,0,0,0,3,3h122a3,3,0,0,0,3-3V163a3,3,0,0,0-3-3H1067a3,3,0,0,0-3,3v33" transform="translate(0 0)" fill="#f9fafb" stroke="#cfd4d7" stroke-miterlimit="10"/><path d="M1017,88a1,1,0,1,0-1,1,1,1,0,0,0,1-1h2a3,3,0,1,1-3-3,3,3,0,0,1,3,3h13a8,8,0,0,1,8,8V200a8,8,0,0,0,8,8h16v-4l7,4-7,4v-4h2l-1,2,3-2-3-2,1,2" transform="translate(0 0)" fill="none" stroke="#7ec632" stroke-linecap="round" stroke-linejoin="round" stroke-width="2"/><path d="M1115.568,191.5q.839,0,1.477.063a7.139,7.139,0,0,1,1.113.189,3.387,3.387,0,0,1,.826.329,3,3,0,0,1,.615.469,3.482,3.482,0,0,1,.813,1.505,8.779,8.779,0,0,1,.309,2.513,8.133,8.133,0,0,1-.119,1.4,7.567,7.567,0,0,1-.33,1.253,5.054,5.054,0,0,1-.5,1.036,3.6,3.6,0,0,1-.644.763,3.427,3.427,0,0,1-1.463.749,9.143,9.143,0,0,1-2.247.231h-3.92V191.5Zm-1.793,1.9v6.678h1.33q.533,0,.932-.028a6.051,6.051,0,0,0,.693-.084,2.456,2.456,0,0,0,.5-.147,1.309,1.309,0,0,0,.363-.231,2.478,2.478,0,0,0,.561-1.029,6.094,6.094,0,0,0,.252-1.911,6.508,6.508,0,0,0-.176-1.659,2.471,2.471,0,0,0-.482-1,1.494,1.494,0,0,0-.91-.483,8.39,8.39,0,0,0-1.441-.1Z" transform="translate(0 0)" fill="#8b969e"/><path d="M1127.5,202l-.364-1.134h-.1q-.113.14-.252.308t-.267.315c-.084.1-.158.182-.224.252a.749.749,0,0,1-.126.119,2.369,2.369,0,0,1-.693.189,6.262,6.262,0,0,1-.986.077,3.568,3.568,0,0,1-1.078-.133,1.448,1.448,0,0,1-.645-.4,1.872,1.872,0,0,1-.385-.721,3.2,3.2,0,0,1-.133-.931,2.531,2.531,0,0,1,.259-1.267,2.066,2.066,0,0,1,.581-.665,3.2,3.2,0,0,1,.686-.308,7.827,7.827,0,0,1,.953-.245q.53-.1,1.141-.189t1.253-.14a4.034,4.034,0,0,0-.05-.616.983.983,0,0,0-.174-.476.859.859,0,0,0-.539-.266,4.707,4.707,0,0,0-.834-.07q-.363,0-.741.028c-.253.019-.5.042-.735.07s-.465.056-.679.084-.406.056-.574.084v-1.5q.265-.07.644-.161t.826-.168q.448-.077.952-.126c.337-.033.681-.049,1.036-.049a6.416,6.416,0,0,1,1.512.147,2.313,2.313,0,0,1,.938.441,1.908,1.908,0,0,1,.5.833,4.92,4.92,0,0,1,.175,1.463V202Zm-.378-3.528q-.378.014-.784.035t-.77.063q-.365.042-.623.091a.831.831,0,0,0-.344.119,1.115,1.115,0,0,0-.209.784,1.1,1.1,0,0,0,.223.784.824.824,0,0,0,.357.168,2.769,2.769,0,0,0,.623.056,6.606,6.606,0,0,0,.868-.056,4.554,4.554,0,0,0,.658-.126Z" transform="translate(0 0)" fill="#8b969e"/><path d="M1136.219,195.8h-2.185v3.486a2.279,2.279,0,0,0,.056.553.729.729,0,0,0,.182.343.646.646,0,0,0,.336.168,2.716,2.716,0,0,0,.519.042c.233,0,.478-.009.735-.028s.455-.037.595-.056l-.168,1.54c-.243.065-.548.128-.917.189a7.6,7.6,0,0,1-1.225.091,3.756,3.756,0,0,1-1.106-.14,1.694,1.694,0,0,1-.728-.427,1.673,1.673,0,0,1-.406-.735,4.024,4.024,0,0,1-.126-1.078V195.8h-1.106l.112-1.652h.994v-1.288l2.254-.42v1.708h2.506Z" transform="translate(0 0)" fill="#8b969e"/><path d="M1142.714,202l-.364-1.134h-.1q-.111.14-.252.308c-.094.112-.182.217-.266.315s-.159.182-.225.252a.749.749,0,0,1-.126.119,2.36,2.36,0,0,1-.692.189,6.278,6.278,0,0,1-.988.077,3.565,3.565,0,0,1-1.077-.133,1.445,1.445,0,0,1-.644-.4,1.873,1.873,0,0,1-.386-.721,3.2,3.2,0,0,1-.133-.931,2.531,2.531,0,0,1,.259-1.267,2.066,2.066,0,0,1,.581-.665,3.171,3.171,0,0,1,.687-.308,7.744,7.744,0,0,1,.951-.245q.533-.1,1.142-.189t1.253-.14a4.156,4.156,0,0,0-.049-.616.992.992,0,0,0-.176-.476.851.851,0,0,0-.539-.266,4.668,4.668,0,0,0-.832-.07q-.365,0-.742.028t-.735.07q-.356.042-.679.084t-.574.084v-1.5q.267-.07.645-.161t.826-.168q.447-.077.951-.126t1.036-.049a6.431,6.431,0,0,1,1.513.147,2.315,2.315,0,0,1,.938.441,1.9,1.9,0,0,1,.5.833,4.92,4.92,0,0,1,.175,1.463V202Zm-.378-3.528q-.378.014-.784.035t-.771.063c-.242.028-.449.059-.623.091a.825.825,0,0,0-.342.119,1.109,1.109,0,0,0-.211.784,1.093,1.093,0,0,0,.225.784.819.819,0,0,0,.357.168,2.763,2.763,0,0,0,.623.056,6.591,6.591,0,0,0,.867-.056,4.527,4.527,0,0,0,.658-.126Z" transform="translate(0 0)" fill="#8b969e"/><path d="M1108.422,215.776a3.738,3.738,0,0,1-.267,1.449,2.589,2.589,0,0,1-.63.959,3.008,3.008,0,0,1-1.295.581,8.9,8.9,0,0,1-2.023.2,13.8,13.8,0,0,1-1.84-.119,8.148,8.148,0,0,1-1.478-.315V216.84c.158.028.353.059.581.091s.48.061.756.084.563.044.861.063.6.028.9.028a8.581,8.581,0,0,0,1.134-.063,1.109,1.109,0,0,0,.616-.217.829.829,0,0,0,.21-.329,1.4,1.4,0,0,0,.084-.511,1,1,0,0,0-.294-.854,4.411,4.411,0,0,0-.91-.385q-.587-.189-1.231-.406t-1.232-.483a2.5,2.5,0,0,1-.9-.63,2.255,2.255,0,0,1-.42-.819,3.915,3.915,0,0,1-.14-1.085,3.605,3.605,0,0,1,.259-1.47,2.615,2.615,0,0,1,.623-.9,2.325,2.325,0,0,1,.483-.336,3.377,3.377,0,0,1,.687-.266,6.748,6.748,0,0,1,.93-.182,9.622,9.622,0,0,1,1.232-.07q.42,0,.84.028t.813.07c.262.028.508.061.742.1s.434.075.6.112V210.2q-.545-.07-1.3-.14t-1.638-.07a2.863,2.863,0,0,0-1.639.294.873.873,0,0,0-.209.343,1.338,1.338,0,0,0-.07.441,1.964,1.964,0,0,0,.049.476.619.619,0,0,0,.189.322,1.49,1.49,0,0,0,.475.28q.337.14.771.294c.29.1.595.208.917.315s.631.217.924.329a6.362,6.362,0,0,1,.8.364,1.96,1.96,0,0,1,.539.406,2.183,2.183,0,0,1,.377.826A4.5,4.5,0,0,1,1108.422,215.776Z" transform="translate(0 0)" fill="#8b969e"/><path d="M1114.273,212.5a4.413,4.413,0,0,0-1.071.112,1.27,1.27,0,0,0-.679.392,2.988,2.988,0,0,0-.448,1.9,4.2,4.2,0,0,0,.14,1.2,1.256,1.256,0,0,0,1.043.973,4.276,4.276,0,0,0,.9.084q.6,0,1.127-.049c.351-.033.655-.067.917-.1v1.5q-.5.154-1.162.294a7.393,7.393,0,0,1-1.525.14,6.047,6.047,0,0,1-1.533-.175,2.7,2.7,0,0,1-1.113-.567,2.8,2.8,0,0,1-.812-1.232,6.9,6.9,0,0,1,.008-3.913,3.393,3.393,0,0,1,.818-1.351,3.95,3.95,0,0,1,2.842-.952,9.305,9.305,0,0,1,1.449.1q.609.1,1.029.2v1.6q-.322-.028-.812-.084A10,10,0,0,0,1114.273,212.5Z" transform="translate(0 0)" fill="#8b969e"/><path d="M1120.293,208.524a1.879,1.879,0,0,1-.076.546.763.763,0,0,1-.231.378.836.836,0,0,1-.392.154,3.48,3.48,0,0,1-.574.042,2.376,2.376,0,0,1-.6-.063,1.168,1.168,0,0,1-.393-.175.925.925,0,0,1-.2-.336,1.5,1.5,0,0,1-.084-.532,1.311,1.311,0,0,1,.118-.588.948.948,0,0,1,.273-.35,1.686,1.686,0,0,1,.35-.133,2.172,2.172,0,0,1,.574-.063,1.568,1.568,0,0,1,.924.21.675.675,0,0,1,.231.35A1.843,1.843,0,0,1,1120.293,208.524Zm-2.408,10.276v-7.854h2.24V218.8Z" transform="translate(0 0)" fill="#8b969e"/><path d="M1121.973,215.118a4.8,4.8,0,0,1,.967-3.3,3.891,3.891,0,0,1,3.023-1.064,5.154,5.154,0,0,1,1.582.21,2.312,2.312,0,0,1,1.617,1.687,5.682,5.682,0,0,1,.175,1.491v1.246h-5.054a3.562,3.562,0,0,0,.105.819,1.2,1.2,0,0,0,.321.567,1.445,1.445,0,0,0,.638.336,4.11,4.11,0,0,0,1.063.112,13.922,13.922,0,0,0,1.526-.077q.7-.076,1.147-.119l-.2,1.484q-.56.154-1.322.3a9.109,9.109,0,0,1-1.715.147,5.917,5.917,0,0,1-1.834-.245,2.816,2.816,0,0,1-1.2-.728,2.778,2.778,0,0,1-.651-1.2A6.318,6.318,0,0,1,1121.973,215.118Zm3.822-2.828a1.4,1.4,0,0,0-1.113.385,2.247,2.247,0,0,0-.385,1.309h2.828v-.224a1.747,1.747,0,0,0-.294-1.092A1.242,1.242,0,0,0,1125.795,212.29Z" transform="translate(0 0)" fill="#8b969e"/><path d="M1136.322,218.8v-4.662a2.789,2.789,0,0,0-.084-.756,1.251,1.251,0,0,0-.252-.49.8.8,0,0,0-.434-.231,3.1,3.1,0,0,0-.672-.063,5.654,5.654,0,0,0-.84.063,4.628,4.628,0,0,0-.686.147V218.8H1131.1v-7.854h1.8l.435,1.148h.112c.047-.056.116-.133.21-.231l.28-.294c.093-.1.18-.187.259-.266a.966.966,0,0,1,.147-.133,2.41,2.41,0,0,1,.707-.238,5.443,5.443,0,0,1,1.1-.1,2.432,2.432,0,0,1,1.849.6,1.836,1.836,0,0,1,.448.875,5.472,5.472,0,0,1,.126,1.239v5.25Z" transform="translate(0 0)" fill="#8b969e"/><path d="M1144.9,212.5a4.4,4.4,0,0,0-1.07.112,1.269,1.269,0,0,0-.68.392,2.989,2.989,0,0,0-.447,1.9,4.2,4.2,0,0,0,.14,1.2,1.256,1.256,0,0,0,1.043.973,4.269,4.269,0,0,0,.9.084c.4,0,.777-.016,1.127-.049s.655-.067.916-.1v1.5q-.5.154-1.161.294a7.4,7.4,0,0,1-1.526.14,6.052,6.052,0,0,1-1.533-.175,2.7,2.7,0,0,1-1.113-.567,2.8,2.8,0,0,1-.812-1.232,6.888,6.888,0,0,1,.007-3.913,3.4,3.4,0,0,1,.819-1.351,3.95,3.95,0,0,1,2.842-.952,9.314,9.314,0,0,1,1.449.1c.405.065.749.131,1.028.2v1.6c-.215-.019-.484-.046-.812-.084A10.032,10.032,0,0,0,1144.9,212.5Z" transform="translate(0 0)" fill="#8b969e"/><path d="M1147.887,215.118a4.8,4.8,0,0,1,.967-3.3,3.891,3.891,0,0,1,3.023-1.064,5.154,5.154,0,0,1,1.582.21,2.312,2.312,0,0,1,1.617,1.687,5.682,5.682,0,0,1,.175,1.491v1.246H1150.2a3.562,3.562,0,0,0,.105.819,1.2,1.2,0,0,0,.321.567,1.445,1.445,0,0,0,.638.336,4.11,4.11,0,0,0,1.063.112,13.921,13.921,0,0,0,1.526-.077q.7-.076,1.147-.119l-.2,1.484q-.56.154-1.322.3a9.109,9.109,0,0,1-1.715.147,5.917,5.917,0,0,1-1.834-.245,2.816,2.816,0,0,1-1.2-.728,2.778,2.778,0,0,1-.651-1.2A6.318,6.318,0,0,1,1147.887,215.118Zm3.822-2.828a1.4,1.4,0,0,0-1.113.385,2.247,2.247,0,0,0-.385,1.309h2.828v-.224a1.747,1.747,0,0,0-.294-1.092A1.242,1.242,0,0,0,1151.709,212.29Z" transform="translate(0 0)" fill="#8b969e"/><path d="M237.171,73.5a9.9,9.9,0,0,1,1.687.112,2.451,2.451,0,0,1,.917.322,1.962,1.962,0,0,1,.63.826,3.3,3.3,0,0,1,.252,1.358,4.319,4.319,0,0,1-.175,1.295,2.793,2.793,0,0,1-.427.875,2.4,2.4,0,0,1-.3.217q-.189.119-.42.238t-.483.224q-.252.105-.462.189v.1c.084.038.182.084.294.14s.222.114.329.175.208.122.3.182a1.435,1.435,0,0,1,.224.175,3.8,3.8,0,0,1,.364.588q.223.42.483.987t.539,1.225q.28.658.546,1.274h-2.618q-.28-.728-.539-1.358t-.49-1.113a8.445,8.445,0,0,0-.427-.8,1.558,1.558,0,0,0-.35-.427,1,1,0,0,0-.553-.2,6.98,6.98,0,0,0-.875-.049h-.476V84h-2.282V73.5Zm-2.03,4.718h1.274a5.681,5.681,0,0,0,.91-.056,1.435,1.435,0,0,0,.5-.168,1.151,1.151,0,0,0,.371-.476,2.053,2.053,0,0,0,.161-.882,2.023,2.023,0,0,0-.112-.707,1.034,1.034,0,0,0-.28-.441.9.9,0,0,0-.476-.2,4.907,4.907,0,0,0-.756-.049h-1.6Z" transform="translate(0 0)" fill="#ffb100"/><path d="M247.713,84l-.364-1.134h-.1q-.112.14-.252.308c-.094.112-.182.217-.266.315s-.159.182-.224.252a.749.749,0,0,1-.126.119,2.364,2.364,0,0,1-.693.189,6.27,6.27,0,0,1-.987.077,3.567,3.567,0,0,1-1.078-.133,1.447,1.447,0,0,1-.644-.4,1.872,1.872,0,0,1-.385-.721,3.2,3.2,0,0,1-.133-.931,2.531,2.531,0,0,1,.259-1.267,2.066,2.066,0,0,1,.581-.665,3.188,3.188,0,0,1,.686-.308,7.785,7.785,0,0,1,.952-.245q.532-.1,1.141-.189t1.253-.14a4.094,4.094,0,0,0-.049-.616.988.988,0,0,0-.175-.476.855.855,0,0,0-.539-.266,4.688,4.688,0,0,0-.833-.07q-.364,0-.742.028c-.252.019-.5.042-.735.07s-.464.056-.679.084-.406.056-.574.084v-1.5q.266-.07.644-.161t.826-.168q.448-.077.952-.126c.336-.033.681-.049,1.036-.049a6.423,6.423,0,0,1,1.512.147,2.314,2.314,0,0,1,.938.441,1.9,1.9,0,0,1,.5.833,4.92,4.92,0,0,1,.175,1.463V84Zm-.378-3.528q-.378.014-.784.035t-.77.063q-.364.042-.623.091a.828.828,0,0,0-.343.119,1.112,1.112,0,0,0-.21.784,1.1,1.1,0,0,0,.224.784.821.821,0,0,0,.357.168,2.766,2.766,0,0,0,.623.056,6.6,6.6,0,0,0,.868-.056,4.54,4.54,0,0,0,.658-.126Z" transform="translate(0 0)" fill="#ffb100"/><path d="M261.8,84h-3.08l-1.232-5.908h-.154L255.749,84H252.6l-1.568-7.854H253.3l.994,5.88h.21l1.568-5.88H259l1.218,5.88h.21l1.2-5.88h2.212Z" transform="translate(0 0)" fill="#ffb100"/><path d="M235.568,90.3q.84,0,1.477.063a7.139,7.139,0,0,1,1.113.189,3.36,3.36,0,0,1,.826.329,2.993,2.993,0,0,1,.616.469,3.487,3.487,0,0,1,.812,1.505,8.78,8.78,0,0,1,.308,2.513,8.037,8.037,0,0,1-.119,1.4,7.567,7.567,0,0,1-.329,1.253,5.1,5.1,0,0,1-.5,1.036,3.612,3.612,0,0,1-.644.763,3.43,3.43,0,0,1-1.463.749,9.143,9.143,0,0,1-2.247.231h-3.92V90.3Zm-1.792,1.9v6.678h1.33q.532,0,.931-.028a6.014,6.014,0,0,0,.693-.084,2.42,2.42,0,0,0,.5-.147,1.315,1.315,0,0,0,.364-.231,2.478,2.478,0,0,0,.56-1.029,6.094,6.094,0,0,0,.252-1.911,6.532,6.532,0,0,0-.175-1.659,2.477,2.477,0,0,0-.483-1,1.5,1.5,0,0,0-.91-.483,8.388,8.388,0,0,0-1.442-.1Z" transform="translate(0 0)" fill="#ffb100"/><path d="M247.5,100.8l-.364-1.134h-.1q-.112.14-.252.308c-.094.112-.182.217-.266.315s-.159.182-.224.252a.749.749,0,0,1-.126.119,2.364,2.364,0,0,1-.693.189,6.27,6.27,0,0,1-.987.077,3.567,3.567,0,0,1-1.078-.133,1.447,1.447,0,0,1-.644-.4,1.872,1.872,0,0,1-.385-.721,3.2,3.2,0,0,1-.133-.931,2.531,2.531,0,0,1,.259-1.267,2.066,2.066,0,0,1,.581-.665,3.188,3.188,0,0,1,.686-.308,7.785,7.785,0,0,1,.952-.245q.532-.1,1.141-.189t1.253-.14a4.094,4.094,0,0,0-.049-.616.988.988,0,0,0-.175-.476.855.855,0,0,0-.539-.266,4.688,4.688,0,0,0-.833-.07q-.364,0-.742.028c-.252.019-.5.042-.735.07s-.464.056-.679.084-.406.056-.574.084v-1.5q.266-.07.644-.161t.826-.168q.448-.077.952-.126c.336-.033.681-.049,1.036-.049a6.423,6.423,0,0,1,1.512.147,2.314,2.314,0,0,1,.938.441,1.9,1.9,0,0,1,.5.833,4.92,4.92,0,0,1,.175,1.463V100.8Zm-.378-3.528q-.378.014-.784.035t-.77.063q-.364.042-.623.091a.828.828,0,0,0-.343.119,1.112,1.112,0,0,0-.21.784,1.1,1.1,0,0,0,.224.784.821.821,0,0,0,.357.168,2.766,2.766,0,0,0,.623.056,6.6,6.6,0,0,0,.868-.056,4.54,4.54,0,0,0,.658-.126Z" transform="translate(0 0)" fill="#ffb100"/><path d="M256.218,94.6h-2.184v3.486a2.279,2.279,0,0,0,.056.553.734.734,0,0,0,.182.343.642.642,0,0,0,.336.168,2.71,2.71,0,0,0,.518.042q.35,0,.735-.028t.6-.056l-.168,1.54q-.364.1-.917.189a7.588,7.588,0,0,1-1.225.091,3.755,3.755,0,0,1-1.106-.14,1.7,1.7,0,0,1-.728-.427,1.682,1.682,0,0,1-.406-.735,4.024,4.024,0,0,1-.126-1.078V94.6h-1.106l.112-1.652h.994V91.658l2.254-.42v1.708h2.506Z" transform="translate(0 0)" fill="#ffb100"/><path d="M262.714,100.8l-.364-1.134h-.1q-.112.14-.252.308c-.094.112-.182.217-.266.315s-.159.182-.224.252a.749.749,0,0,1-.126.119,2.364,2.364,0,0,1-.693.189,6.27,6.27,0,0,1-.987.077,3.567,3.567,0,0,1-1.078-.133,1.447,1.447,0,0,1-.644-.4,1.872,1.872,0,0,1-.385-.721,3.2,3.2,0,0,1-.133-.931,2.531,2.531,0,0,1,.259-1.267,2.066,2.066,0,0,1,.581-.665,3.188,3.188,0,0,1,.686-.308,7.785,7.785,0,0,1,.952-.245q.532-.1,1.141-.189t1.253-.14a4.094,4.094,0,0,0-.049-.616.988.988,0,0,0-.175-.476.855.855,0,0,0-.539-.266,4.688,4.688,0,0,0-.833-.07q-.364,0-.742.028c-.252.019-.5.042-.735.07s-.464.056-.679.084-.406.056-.574.084v-1.5q.266-.07.644-.161t.826-.168q.448-.077.952-.126c.336-.033.681-.049,1.036-.049a6.423,6.423,0,0,1,1.512.147,2.314,2.314,0,0,1,.938.441,1.9,1.9,0,0,1,.5.833,4.92,4.92,0,0,1,.175,1.463V100.8Zm-.378-3.528q-.378.014-.784.035t-.77.063q-.364.042-.623.091a.828.828,0,0,0-.343.119,1.112,1.112,0,0,0-.21.784,1.1,1.1,0,0,0,.224.784.821.821,0,0,0,.357.168,2.766,2.766,0,0,0,.623.056,6.6,6.6,0,0,0,.868-.056,4.54,4.54,0,0,0,.658-.126Z" transform="translate(0 0)" fill="#ffb100"/><path d="M913.276,75.4h-2.954V84h-2.268V75.4H904.9l.35-1.9h8.358Z" transform="translate(0 0)" fill="#7ec632"/><path d="M915.614,76.146l.421,1.26h.1c.047-.065.109-.154.188-.266s.161-.224.245-.336.161-.21.23-.294a.964.964,0,0,1,.147-.154,2.164,2.164,0,0,1,.574-.231,3.445,3.445,0,0,1,.91-.1,5.7,5.7,0,0,1,.728.042V78.12c-.158-.037-.359-.077-.6-.119a5.072,5.072,0,0,0-.854-.063,4.177,4.177,0,0,0-.925.1,2.642,2.642,0,0,0-.728.266V84h-2.24V76.146Z" transform="translate(0 0)" fill="#7ec632"/><path d="M925.064,84l-.364-1.134h-.1q-.113.14-.252.308t-.267.315c-.084.1-.158.182-.224.252a.749.749,0,0,1-.126.119,2.369,2.369,0,0,1-.693.189,6.262,6.262,0,0,1-.986.077,3.568,3.568,0,0,1-1.078-.133,1.448,1.448,0,0,1-.645-.4,1.872,1.872,0,0,1-.385-.721,3.2,3.2,0,0,1-.133-.931,2.531,2.531,0,0,1,.259-1.267,2.066,2.066,0,0,1,.581-.665,3.2,3.2,0,0,1,.686-.308,7.827,7.827,0,0,1,.953-.245q.53-.1,1.141-.189t1.253-.14a4.034,4.034,0,0,0-.05-.616.983.983,0,0,0-.174-.476.859.859,0,0,0-.539-.266,4.707,4.707,0,0,0-.834-.07q-.363,0-.741.028c-.253.019-.5.042-.735.07s-.465.056-.679.084-.406.056-.574.084v-1.5q.265-.07.644-.161t.826-.168q.448-.077.952-.126c.337-.033.681-.049,1.036-.049a6.416,6.416,0,0,1,1.512.147,2.313,2.313,0,0,1,.938.441,1.908,1.908,0,0,1,.5.833,4.92,4.92,0,0,1,.175,1.463V84Zm-.378-3.528q-.378.014-.784.035t-.77.063q-.365.042-.623.091a.831.831,0,0,0-.344.119,1.115,1.115,0,0,0-.209.784,1.1,1.1,0,0,0,.223.784.824.824,0,0,0,.357.168,2.769,2.769,0,0,0,.623.056,6.606,6.606,0,0,0,.868-.056,4.554,4.554,0,0,0,.658-.126Z" transform="translate(0 0)" fill="#7ec632"/><path d="M934.318,84V79.338a2.789,2.789,0,0,0-.084-.756,1.278,1.278,0,0,0-.252-.49.812.812,0,0,0-.434-.231,3.111,3.111,0,0,0-.672-.063,5.644,5.644,0,0,0-.84.063,4.616,4.616,0,0,0-.687.147V84H929.1V76.146H930.9l.434,1.148h.113c.046-.056.115-.133.209-.231l.28-.294c.093-.1.18-.187.259-.266a1.079,1.079,0,0,1,.147-.133,2.41,2.41,0,0,1,.707-.238,5.453,5.453,0,0,1,1.1-.1,2.428,2.428,0,0,1,1.848.6,1.837,1.837,0,0,1,.449.875,5.476,5.476,0,0,1,.125,1.239V84Z" transform="translate(0 0)" fill="#7ec632"/><path d="M944.355,81.578a3.4,3.4,0,0,1-.168,1.127,1.752,1.752,0,0,1-.566.8,2.672,2.672,0,0,1-1.05.483,6.9,6.9,0,0,1-1.617.161,11.052,11.052,0,0,1-1.47-.1c-.486-.065-.892-.135-1.219-.21V82.32c.141.028.3.056.49.084s.383.054.588.077.418.042.637.056.428.021.623.021a4.933,4.933,0,0,0,.777-.049,1.462,1.462,0,0,0,.477-.147.529.529,0,0,0,.238-.245.884.884,0,0,0,.063-.343.583.583,0,0,0-.141-.448,1.1,1.1,0,0,0-.455-.238q-.313-.1-.86-.252a7.64,7.64,0,0,1-1.295-.42,1.815,1.815,0,0,1-.735-.546,1.506,1.506,0,0,1-.287-.581,3.3,3.3,0,0,1-.091-.833,3.009,3.009,0,0,1,.168-1.036,1.807,1.807,0,0,1,.554-.784,2.668,2.668,0,0,1,1.008-.5,5.744,5.744,0,0,1,1.533-.175,13.037,13.037,0,0,1,1.5.077q.656.077,1.078.161v1.554q-.435-.07-1.016-.112c-.388-.028-.781-.042-1.184-.042a4.754,4.754,0,0,0-.756.049,1.329,1.329,0,0,0-.447.14.473.473,0,0,0-.211.231.867.867,0,0,0-.056.322,1.181,1.181,0,0,0,.021.238.375.375,0,0,0,.105.182.836.836,0,0,0,.393.252,7.7,7.7,0,0,0,.867.252,12.436,12.436,0,0,1,1.281.357,2.009,2.009,0,0,1,.764.441,1.61,1.61,0,0,1,.343.581A2.942,2.942,0,0,1,944.355,81.578Z" transform="translate(0 0)" fill="#7ec632"/><path d="M950.5,77.8h-1.945V84h-2.24V77.8h-1.148l.126-1.652h1.022v-.77a3.778,3.778,0,0,1,.154-1.127,2.066,2.066,0,0,1,1.364-1.4,4.028,4.028,0,0,1,1.323-.189,8.806,8.806,0,0,1,1.021.056c.318.038.584.075.8.112V74.34q-.211-.013-.539-.042t-.721-.028a1.769,1.769,0,0,0-.6.084.8.8,0,0,0-.357.238.828.828,0,0,0-.168.371,2.616,2.616,0,0,0-.041.483v.7h2.226Z" transform="translate(0 0)" fill="#7ec632"/><path d="M959.266,79.912a6.032,6.032,0,0,1-.322,2.072,3.188,3.188,0,0,1-.854,1.344,4.355,4.355,0,0,1-2.968.826,5.706,5.706,0,0,1-1.82-.245,2.8,2.8,0,0,1-1.12-.665,2.954,2.954,0,0,1-.65-1.12,6.833,6.833,0,0,1,.076-3.983,3.054,3.054,0,0,1,2.059-1.96,5.926,5.926,0,0,1,1.777-.231,5.82,5.82,0,0,1,1.793.231,2.724,2.724,0,0,1,1.092.623,2.878,2.878,0,0,1,.686,1.141A6.16,6.16,0,0,1,959.266,79.912Zm-4.046,2.52a2.591,2.591,0,0,0,.771-.1,1.277,1.277,0,0,0,.531-.3,1.7,1.7,0,0,0,.357-.714,4.757,4.757,0,0,0,.133-1.246,5.177,5.177,0,0,0-.119-1.288,1.8,1.8,0,0,0-.314-.672,1.619,1.619,0,0,0-1.246-.392,2.57,2.57,0,0,0-.777.1,1.13,1.13,0,0,0-.5.287,1.567,1.567,0,0,0-.371.707,4.661,4.661,0,0,0-.147,1.295,5.871,5.871,0,0,0,.1,1.176,1.518,1.518,0,0,0,.293.7,1.319,1.319,0,0,0,.512.329A2.2,2.2,0,0,0,955.22,82.432Z" transform="translate(0 0)" fill="#7ec632"/><path d="M962.863,76.146l.421,1.26h.1c.047-.065.11-.154.188-.266s.162-.224.246-.336.16-.21.23-.294a1.022,1.022,0,0,1,.146-.154,2.164,2.164,0,0,1,.574-.231,3.445,3.445,0,0,1,.91-.1,5.705,5.705,0,0,1,.729.042V78.12q-.239-.056-.6-.119a5.093,5.093,0,0,0-.854-.063,4.184,4.184,0,0,0-.925.1,2.654,2.654,0,0,0-.728.266V84h-2.239V76.146Z" transform="translate(0 0)" fill="#7ec632"/><path d="M977.424,84V79.408a4.246,4.246,0,0,0-.07-.868.913.913,0,0,0-.252-.49,1.5,1.5,0,0,0-1.021-.28,3.666,3.666,0,0,0-.742.07q-.335.07-.574.14V84H972.51V79.408a2.177,2.177,0,0,0-.279-1.33,1.3,1.3,0,0,0-1.008-.308,3.41,3.41,0,0,0-.771.084c-.243.056-.438.107-.588.154V84H967.6V76.146h1.834l.406,1.148h.112c.046-.065.116-.151.21-.259l.273-.315c.088-.1.17-.194.244-.273a.838.838,0,0,1,.141-.133,2.441,2.441,0,0,1,.679-.2,5.655,5.655,0,0,1,1-.084,4.044,4.044,0,0,1,1.021.1,1.581,1.581,0,0,1,.658.343,1.724,1.724,0,0,1,.5.812h.1q.07-.084.211-.245c.093-.107.189-.212.287-.315l.259-.273a.945.945,0,0,1,.14-.133,2.646,2.646,0,0,1,.7-.2,5.6,5.6,0,0,1,1.022-.091,3.921,3.921,0,0,1,.994.1,1.577,1.577,0,0,1,.657.343,1.725,1.725,0,0,1,.5.9,5.955,5.955,0,0,1,.133,1.358V84Z" transform="translate(0 0)" fill="#7ec632"/><path d="M981.512,80.318a4.8,4.8,0,0,1,.967-3.3A3.891,3.891,0,0,1,985.5,75.95a5.154,5.154,0,0,1,1.582.21,2.312,2.312,0,0,1,1.617,1.687,5.682,5.682,0,0,1,.175,1.491v1.246h-5.054a3.562,3.562,0,0,0,.105.819,1.2,1.2,0,0,0,.321.567,1.445,1.445,0,0,0,.638.336,4.11,4.11,0,0,0,1.063.112,13.922,13.922,0,0,0,1.526-.077q.7-.076,1.147-.119l-.2,1.484q-.56.154-1.322.3a9.109,9.109,0,0,1-1.715.147,5.917,5.917,0,0,1-1.834-.245,2.816,2.816,0,0,1-1.2-.728,2.778,2.778,0,0,1-.651-1.2A6.318,6.318,0,0,1,981.512,80.318Zm3.822-2.828a1.4,1.4,0,0,0-1.113.385,2.247,2.247,0,0,0-.385,1.309h2.828V78.96a1.747,1.747,0,0,0-.294-1.092A1.242,1.242,0,0,0,985.334,77.49Z" transform="translate(0 0)" fill="#7ec632"/><path d="M995.861,72.758h2.268V84h-1.945l-.322-1.148h-.111q-.113.14-.252.294l-.273.3q-.133.147-.252.266a1.989,1.989,0,0,1-.176.161,2.309,2.309,0,0,1-.629.2,4.736,4.736,0,0,1-.967.091,2.833,2.833,0,0,1-2.016-.658,2.72,2.72,0,0,1-.658-1.162,6.871,6.871,0,0,1-.238-2,6.347,6.347,0,0,1,.33-2.177,3.2,3.2,0,0,1,.889-1.379,3.613,3.613,0,0,1,2.478-.77,6.941,6.941,0,0,1,1.085.077q.483.077.791.147ZM992.6,80.136a2.87,2.87,0,0,0,.462,1.946,1.1,1.1,0,0,0,.539.3,2.959,2.959,0,0,0,.763.091,4.089,4.089,0,0,0,.826-.084,3.666,3.666,0,0,0,.672-.2V77.8q-.237-.028-.609-.056t-.734-.028a3.54,3.54,0,0,0-.784.077,1.259,1.259,0,0,0-.56.273,1.588,1.588,0,0,0-.428.749A4.832,4.832,0,0,0,992.6,80.136Z" transform="translate(0 0)" fill="#7ec632"/><path d="M939.568,90.3q.839,0,1.477.063a7.139,7.139,0,0,1,1.113.189,3.387,3.387,0,0,1,.826.329,3,3,0,0,1,.615.469,3.482,3.482,0,0,1,.813,1.505,8.779,8.779,0,0,1,.309,2.513,8.133,8.133,0,0,1-.119,1.4,7.567,7.567,0,0,1-.33,1.253,5.054,5.054,0,0,1-.5,1.036,3.6,3.6,0,0,1-.644.763,3.427,3.427,0,0,1-1.463.749,9.143,9.143,0,0,1-2.247.231h-3.92V90.3Zm-1.793,1.9v6.678h1.33q.533,0,.932-.028a6.051,6.051,0,0,0,.693-.084,2.456,2.456,0,0,0,.5-.147,1.309,1.309,0,0,0,.363-.231,2.478,2.478,0,0,0,.561-1.029,6.094,6.094,0,0,0,.252-1.911,6.508,6.508,0,0,0-.176-1.659,2.471,2.471,0,0,0-.482-1,1.494,1.494,0,0,0-.91-.483,8.39,8.39,0,0,0-1.441-.1Z" transform="translate(0 0)" fill="#7ec632"/><path d="M951.5,100.8l-.364-1.134h-.1q-.113.14-.252.308t-.267.315c-.084.1-.158.182-.224.252a.749.749,0,0,1-.126.119,2.369,2.369,0,0,1-.693.189,6.262,6.262,0,0,1-.986.077,3.568,3.568,0,0,1-1.078-.133,1.448,1.448,0,0,1-.645-.4,1.872,1.872,0,0,1-.385-.721,3.2,3.2,0,0,1-.133-.931,2.531,2.531,0,0,1,.259-1.267,2.066,2.066,0,0,1,.581-.665,3.2,3.2,0,0,1,.686-.308,7.827,7.827,0,0,1,.953-.245q.53-.1,1.141-.189t1.253-.14a4.034,4.034,0,0,0-.05-.616.983.983,0,0,0-.174-.476.859.859,0,0,0-.539-.266,4.707,4.707,0,0,0-.834-.07q-.363,0-.741.028c-.253.019-.5.042-.735.07s-.465.056-.679.084-.406.056-.574.084v-1.5q.265-.07.644-.161t.826-.168q.448-.077.952-.126c.337-.033.681-.049,1.036-.049a6.416,6.416,0,0,1,1.512.147,2.313,2.313,0,0,1,.938.441,1.908,1.908,0,0,1,.5.833,4.92,4.92,0,0,1,.175,1.463V100.8Zm-.378-3.528q-.378.014-.784.035t-.77.063q-.365.042-.623.091a.831.831,0,0,0-.344.119,1.115,1.115,0,0,0-.209.784,1.1,1.1,0,0,0,.223.784.824.824,0,0,0,.357.168,2.769,2.769,0,0,0,.623.056,6.606,6.606,0,0,0,.868-.056,4.554,4.554,0,0,0,.658-.126Z" transform="translate(0 0)" fill="#7ec632"/><path d="M960.219,94.6h-2.185v3.486a2.279,2.279,0,0,0,.056.553.729.729,0,0,0,.182.343.646.646,0,0,0,.336.168,2.716,2.716,0,0,0,.519.042c.233,0,.478-.009.735-.028s.455-.037.595-.056l-.168,1.54c-.243.065-.548.128-.917.189a7.6,7.6,0,0,1-1.225.091,3.756,3.756,0,0,1-1.106-.14,1.694,1.694,0,0,1-.728-.427,1.673,1.673,0,0,1-.406-.735,4.024,4.024,0,0,1-.126-1.078V94.6h-1.106l.112-1.652h.994V91.658l2.254-.42v1.708h2.506Z" transform="translate(0 0)" fill="#7ec632"/><path d="M966.714,100.8l-.364-1.134h-.1q-.111.14-.252.308c-.094.112-.182.217-.266.315s-.159.182-.225.252a.749.749,0,0,1-.126.119,2.36,2.36,0,0,1-.692.189,6.278,6.278,0,0,1-.988.077,3.565,3.565,0,0,1-1.077-.133,1.445,1.445,0,0,1-.644-.4,1.873,1.873,0,0,1-.386-.721,3.2,3.2,0,0,1-.133-.931,2.531,2.531,0,0,1,.259-1.267,2.066,2.066,0,0,1,.581-.665,3.171,3.171,0,0,1,.687-.308,7.744,7.744,0,0,1,.951-.245q.533-.1,1.142-.189t1.253-.14a4.156,4.156,0,0,0-.049-.616.992.992,0,0,0-.176-.476.851.851,0,0,0-.539-.266,4.668,4.668,0,0,0-.832-.07q-.365,0-.742.028t-.735.07q-.356.042-.679.084t-.574.084v-1.5q.267-.07.645-.161t.826-.168q.447-.077.951-.126t1.036-.049a6.431,6.431,0,0,1,1.513.147,2.315,2.315,0,0,1,.938.441,1.9,1.9,0,0,1,.5.833,4.92,4.92,0,0,1,.175,1.463V100.8Zm-.378-3.528q-.378.014-.784.035t-.771.063c-.242.028-.449.059-.623.091a.825.825,0,0,0-.342.119,1.109,1.109,0,0,0-.211.784,1.093,1.093,0,0,0,.225.784.819.819,0,0,0,.357.168,2.763,2.763,0,0,0,.623.056,6.591,6.591,0,0,0,.867-.056,4.527,4.527,0,0,0,.658-.126Z" transform="translate(0 0)" fill="#7ec632"/><path d="M841,60a1,1,0,1,0-1,1,1,1,0,0,0,1-1h2a3,3,0,1,1-3-3,3,3,0,0,1,3,3h45V56l7,4-7,4V60h2l-1,2,3-2-3-2,1,2" transform="translate(0 0)" fill="none" stroke="#ff694b" stroke-linecap="round" stroke-linejoin="round" stroke-width="2"/><path d="M313,60a1,1,0,1,0-1,1,1,1,0,0,0,1-1h2a3,3,0,1,1-3-3,3,3,0,0,1,3,3h45V56l7,4-7,4V60h2l-1,2,3-2-3-2,1,2" transform="translate(0 0)" fill="none" stroke="#ffb100" stroke-linecap="round" stroke-linejoin="round" stroke-width="2"/></svg>